<?xml version="1.0" encoding="utf-8"?>
<!-- Generator: Adobe Illustrator 18.1.1, SVG Export Plug-In . SVG Version: 6.00 Build 0)  -->
<!DOCTYPE svg PUBLIC "-//W3C//DTD SVG 1.1//EN" "http://www.w3.org/Graphics/SVG/1.1/DTD/svg11.dtd">
<svg version="1.1" id="Layer_1" xmlns="http://www.w3.org/2000/svg" xmlns:xlink="http://www.w3.org/1999/xlink" x="0px" y="0px"
	 width="34px" height="34px" viewBox="-169.5 103.5 34 34" enable-background="new -169.5 103.5 34 34" xml:space="preserve">
<path fill="#D4C7A6" d="M-152.5,103.5c-9.4,0-17,7.6-17,17s7.6,17,17,17s17-7.6,17-17S-143.1,103.5-152.5,103.5z M-147.1,112.9
	c-1.3,0.3-2.9-0.5-3.4,0.4c-0.5,0.8,0,1.8-0.1,3c1,0.1,2.4,0,3.7,0.1c-0.3,1.3-0.3,2.8-0.5,4c-1,0-2.1,0-3.1,0c0,3.8,0,7.6,0,11.3
	c-1.6,0-3.1,0-4.8,0c-0.1-3.7,0-7.6-0.1-11.3c-0.8,0-1.5,0-2.3,0c-0.1-1.3,0-2.8-0.1-4c0.8,0,1.5,0,2.3,0c0.1-2.9,0-5.4,1.9-6.5
	c1.5-1,3.9-0.6,6.7-0.8C-147.1,110.3-147.1,111.6-147.1,112.9z"/>
</svg>
