<?xml version="1.0" encoding="utf-8"?>
<!-- Generator: Adobe Illustrator 18.1.1, SVG Export Plug-In . SVG Version: 6.00 Build 0)  -->
<!DOCTYPE svg PUBLIC "-//W3C//DTD SVG 1.1//EN" "http://www.w3.org/Graphics/SVG/1.1/DTD/svg11.dtd">
<svg version="1.1" id="Layer_1" xmlns="http://www.w3.org/2000/svg" xmlns:xlink="http://www.w3.org/1999/xlink" x="0px" y="0px"
	 width="235px" height="166px" viewBox="177.7 37.1 235 166" enable-background="new 177.7 37.1 235 166" xml:space="preserve">
<g>
	<g id="Emco7U_6_">
		<g>
			<g>
				<path fill="#33ff00" d="M221.6,148.8c-4.2,0-8.4,0-12.6,0c-2.5,0-4.9-0.4-7.2-1.3c-3.5-1.3-6.2-3.7-8.3-6.8
					c-1.2-1.9-2.1-4-2.7-6.2c-0.1-0.4-0.3-0.8-0.6-1.1c-3.3-2.9-5-6.7-5.8-11c-0.1-0.6-0.2-1.3-0.3-2c0-0.5-0.2-0.9-0.6-1.3
					c-2.2-2.5-3.6-5.4-4.5-8.6c-0.9-3.1-1.3-6.2-1.2-9.4c0-0.3,0-0.6,0.3-0.8s0.5,0.1,0.7,0.4c0.5,0.5,1.1,1.1,1.6,1.7
					c2.6,2.4,5.6,4.1,8.9,5.3c3,1.1,6.1,1.7,9.4,1.8c4.4,0,8.8,0,13.2,0c0,0,0.1,0,0.1,0c0.6,0,0.8-0.3,0.7-0.9
					c-0.1-0.9-0.2-1.7-0.3-2.6c0-0.3,0-0.6,0-0.9c0-0.2,0-0.4,0.3-0.5c0.1,0,0.4,0,0.5,0.1c0.2,0.2,0.5,0.5,0.7,0.7
					c0.8,1,1.8,1.6,3,2.1c2,0.7,4.2,1.2,6.3,1.5c3.5,0.5,6.9,0.7,10.4,0.7c2.5,0,4.9,0,7.4,0.3c4.6,0.5,9.1,1.5,13.3,3.5
					c2.7,1.3,5.3,2.9,7.4,5.1c1,0.9,1.9,2,2.9,3c0.1,0.2,0.3,0.3,0.5,0.5c0.3,0.3,0.6,0.2,0.7-0.2c0-0.1,0-0.2,0-0.3
					c0.2-4.1,1.2-8,3-11.7c0.5-1,0.4-1.2-0.7-1.4c-1.3-0.3-2.5-0.8-3.6-1.6c-1.5-1.1-2.5-2.7-3.2-4.5c-0.5-1.5-0.7-3.1-0.8-4.7
					c0-0.7,0-1.3,0-2c0-5.5,0-10.9,0-16.3c0-0.7,0-1.5,0.1-2.2c0.3-2,1.5-3,3.5-3.2c0.4,0,0.9-0.1,1.3-0.1c2.5,0,4.1,1.4,4.4,4
					c0,0.6,0,1.1,0,1.7c0,5.1,0,10.2,0,15.2c0,0.2,0,0.4,0,0.5c0,2,0.6,2.7,1.8,3.5c0.9,0.6,1.9,1,2.9,1.4c0.6,0.2,1.1,0.1,1.6-0.3
					c2.1-1.8,4.4-3.4,6.9-4.6c3.4-1.6,7-2.5,10.9-2.7c7.4-0.3,13.9,2,19.7,6.7c0.3,0.2,0.5,0.5,0.8,0.7c0.3,0.3,0.7,0.3,1.1,0.2
					c1.3-0.4,2.6-1,3.6-1.9c0.8-0.7,1.2-1.5,1.2-2.6c0-5.4,0-10.8,0-16.3c0-0.7,0-1.3,0.1-2c0.2-1.3,0.7-2.4,1.9-3.1
					c0.5-0.3,1-0.4,1.6-0.5c0.9-0.1,1.9,0,2.9,0.1c1.3,0.3,2.2,1.1,2.6,2.4c0.2,0.8,0.3,1.6,0.3,2.4c0,2.4,0,4.8,0,7.1
					c0,3.4,0,6.7,0,10.1c0,1.6-0.1,3.2-0.4,4.7c-0.3,1.6-0.9,3.1-1.9,4.4c-1.2,1.6-2.9,2.7-4.9,3.2c-0.3,0.1-0.6,0.1-0.9,0.2
					c-0.4,0.1-0.5,0.4-0.4,0.8c0,0.1,0.1,0.3,0.2,0.4c1.6,3.6,2.7,7.3,3,11.1c0,0.2,0,0.5,0.1,0.8c0.1,0.3,0.3,0.3,0.6,0.1
					c0.1-0.1,0.2-0.2,0.4-0.4c2.3-2.7,5-5.1,8.1-6.8c3.2-1.8,6.6-3,10.2-3.8c2.9-0.6,5.8-0.9,8.8-1c1.5,0,3,0,4.5-0.1
					c3.7,0,7.4-0.3,11.1-0.9c1.8-0.3,3.6-0.7,5.3-1.4c0.9-0.3,1.7-0.8,2.3-1.6c0.3-0.3,0.6-0.6,0.9-1c0.1-0.1,0.2-0.2,0.3-0.3
					c0.3-0.1,0.5-0.1,0.6,0.2c0,0.2,0,0.4,0,0.6c-0.1,1-0.2,2.1-0.3,3.1c0,0.6,0.1,0.9,0.8,0.9c0.1,0,0.2,0,0.3,0c4,0,7.9,0,11.8,0
					c4.2,0,8.3-0.7,12.1-2.4c2.5-1.1,4.9-2.4,6.9-4.2c0.7-0.6,1.3-1.3,1.9-1.9c0.1-0.1,0.3-0.3,0.4-0.4c0.3-0.2,0.6-0.1,0.7,0.2
					c0,0.1,0,0.2,0,0.4c0.1,4.8-0.7,9.4-2.9,13.8c-0.7,1.5-1.6,2.8-2.7,4.1c-0.4,0.5-0.6,1-0.7,1.7c-0.4,3.1-1.2,6-2.8,8.7
					c-0.8,1.4-1.8,2.7-3,3.8c-0.5,0.4-0.8,1-1,1.6c-0.9,3.4-2.5,6.4-5,8.9c-2.7,2.7-6,4.3-9.8,4.9c-1.2,0.2-2.5,0.2-3.8,0.2
					c-8.6,0-17.1,0-25.7,0c-0.8,0-1.5,0.1-2.2,0.5c-1.4,0.8-3.1,1.1-4.7,1.1c-3.7,0-7.3,0.4-10.9,1.4c-3.7,0.9-7.1,2.2-10.4,4.2
					c-1,0.6-1.9,1.3-2.9,2.1c-0.4,0.3-0.7,0.7-1,1.2c-2.2,3.4-5,6.3-8.2,8.7c-0.7,0.5-0.7,0.7-0.4,1.5c1.2,3.2,3,6.1,5.2,8.7
					c2.8,3.3,6.1,6,9.9,8.1c0.5,0.3,1.1,0.5,1.7,0.8c0.1,0,0.3,0.1,0.4,0.2c0.4,0.3,0.5,0.5,0.2,1c0,0.1-0.1,0.1-0.2,0.2
					c-2.1,2.2-4.3,4.3-7,5.7c-1,0.6-2.2,1.1-3.4,1.4c-0.4,0.1-0.8,0.3-1.2,0.6c-3.5,2.3-7.2,4-11.2,4.9c-0.6,0.1-1.3,0.3-2,0.1
					c-0.2,0-0.5,0-0.8,0.1c-2.7,0.6-5.4,1.1-8.1,1.3c-4,0.3-8,0.3-12-0.6c-1.3-0.3-2.6-0.9-4.1-0.8c-4.3-0.9-8.3-2.6-11.9-5.1
					c-0.5-0.3-1-0.6-1.6-0.7c-1.4-0.3-2.7-1.1-4-1.8c-2.3-1.4-4.3-3.3-6.1-5.3c-0.1-0.1-0.1-0.2-0.2-0.3c-0.2-0.3-0.1-0.5,0.1-0.8
					c0.1-0.1,0.2-0.1,0.4-0.2c2.6-1.1,5-2.7,7.1-4.5c3.7-3,6.6-6.7,8.7-11c0.3-0.7,0.7-1.5,1-2.3c0.3-0.7,0.2-0.9-0.4-1.4
					c-1.5-1.1-2.9-2.3-4.2-3.7c-1.4-1.4-2.6-2.9-3.7-4.6c-0.6-0.9-1.3-1.7-2.2-2.3c-2.1-1.6-4.5-2.8-6.9-3.8
					c-4.4-1.8-9-2.8-13.8-3.1c-0.9,0-1.8-0.1-2.7-0.1c-1.6,0-3.2-0.4-4.6-1.2c-0.6-0.3-1.3-0.5-2-0.5
					C230.6,148.8,226.1,148.8,221.6,148.8L221.6,148.8z M327.5,88.3L327.5,88.3c0-3.1,0-6.1,0-9.2c0-0.5,0-1-0.1-1.4
					c-0.1-0.6-0.4-0.9-1-1c-0.4,0-0.8-0.1-1.3-0.1c-0.8,0-1.3,0.4-1.4,1.2c-0.1,0.5-0.1,1-0.1,1.4c0,5.3,0,10.6,0,15.9
					c0,0.4,0,0.8,0,1.2c0,1.1-0.4,2-1,2.9c-0.8,1.1-1.9,1.8-3,2.5c-2.7,1.4-5.6,2.1-8.6,2.2c-1,0-1.9,0-2.9,0.1
					c-2.2,0.1-4.3,0.8-6.2,1.9c-0.5,0.3-1.1,0.6-1.7,0.9c-2.8,1.3-5.6,1.4-8.5,0.1c-0.6-0.2-1.2-0.6-1.7-0.9c-1.9-1.1-3.9-1.8-6.1-2
					c-1-0.1-2-0.1-3-0.1c-2.3,0-4.6-0.4-6.8-1.2c-1.3-0.5-2.6-1.1-3.7-1.9c-1.7-1.3-2.7-2.9-2.5-5.2c0-0.3,0-0.6,0-0.9
					c0-5.2,0-10.4,0-15.6c0-0.5,0-1-0.1-1.4c-0.1-0.7-0.6-1-1.3-1.1c-0.4,0-0.7,0-1.1,0c-0.8,0.1-1.2,0.4-1.4,1.3c0,0.5,0,1,0,1.5
					c0,5.5,0,10.9,0,16.4c0,0.5,0,1,0,1.5c0.1,1.6,0.3,3.2,0.9,4.8c0.8,1.9,2.2,3.2,4.2,3.7c0.9,0.2,1.8,0.3,2.8,0.4
					c1,0.1,1.9,0.1,2.9,0.4c3.5,0.8,6.4,2.6,9.1,4.9c2.5,2.3,4.5,5,5.9,8c2.2,4.4,3.4,9.1,4.1,14c0.4,3,0.6,6,0.7,9
					c0,0.7,0.4,1.1,1,1.4c0.5,0.3,1,0,1.4-0.3s0.5-0.7,0.5-1.2c0-1.7,0.1-3.3,0.2-5c0.2-3.6,0.8-7.2,1.8-10.7c1.1-4,2.7-7.7,5.1-11
					c2.4-3.4,5.3-6,9.1-7.8c2.2-1,4.4-1.7,6.8-1.7c0.5,0,1.1-0.1,1.6-0.2c2.8-0.4,4.6-2.1,5.4-4.8c0.4-1.5,0.6-3.1,0.6-4.8
					C327.5,93.7,327.5,91,327.5,88.3z M295.3,171.9c0.2,0,0.4,0,0.6,0c0.3,0,0.5,0,0.8,0c4.7-0.2,9.2-1.4,13.3-3.7
					c5.4-2.9,9.5-7.1,12.4-12.4c2.7-5,3.8-10.3,3.5-15.9c-0.1-2.4-0.5-4.9-1.2-7.2c0-0.1-0.1-0.3-0.1-0.5c-0.1-0.1-0.2-0.3-0.3-0.3
					c-0.1,0-0.3,0.1-0.3,0.3c-0.1,0.2-0.1,0.5-0.2,0.7c-0.3,1-0.7,2-1,3c-0.2,0.6-0.5,1-1.2,1.2c-0.5,0.1-0.6,0.4-0.6,0.9
					c0,0.3,0,0.6,0,0.9c0.1,1.6,0,3.2-0.2,4.9c-0.9,6.7-4,12.3-9.2,16.6c-5.3,4.5-11.5,6.4-18.4,5.8c-7.4-0.7-13.4-4.1-17.9-10
					c-3.9-5.1-5.6-10.8-5.4-17.1c0-0.4,0-0.8,0-1.2c0-0.4-0.1-0.7-0.5-0.8c-0.5-0.2-0.8-0.6-1-1.1c-0.4-1.1-0.7-2.2-1.1-3.3
					c-0.1-0.2-0.1-0.5-0.2-0.7c-0.1-0.2-0.2-0.4-0.3-0.4c-0.2,0-0.3,0.2-0.4,0.4c-0.1,0.4-0.3,0.8-0.4,1.2c-1,3.5-1.3,7-1.1,10.6
					c0.5,6.8,3,12.9,7.6,18C278.4,168.4,286.2,171.7,295.3,171.9z M325.1,127c0.1,0.2,0.1,0.4,0.2,0.5c0.4,0.8,0.9,1.7,1.4,2.5
					c0.2,0.4,0.5,0.5,0.9,0.2c0.1,0,0.2-0.1,0.3-0.2c1.5-1.1,3.2-2,5-2.7c4-1.7,8.1-2.6,12.4-3.3c4.6-0.6,9.2-0.9,13.9-0.9
					c1,0,2,0,3,0c2.4-0.1,4.5-0.9,6.4-2.3c1.3-1,2.4-2.2,3.3-3.6c1.2-1.8,2-3.9,2.6-5.9c0-0.2,0.2-0.5,0-0.7c-0.2-0.2-0.5-0.1-0.7,0
					c0,0-0.1,0-0.1,0c-1.1,0.3-2.3,0.6-3.4,0.9c-3.7,0.7-7.4,1-11.2,1.1c-1.8,0-3.6,0-5.4,0.1c-3.1,0.1-6.2,0.4-9.3,1.1
					c-2.9,0.6-5.6,1.6-8.2,3c-2.7,1.5-5.1,3.4-7.2,5.7c-1.1,1.2-2.1,2.5-3.1,3.7C325.4,126.5,325.3,126.7,325.1,127z M216.7,110.4
					c-0.3,0-0.5,0.1-0.5,0.4c0,0.2,0,0.3,0.1,0.5c0.4,1.6,1.1,3.2,1.9,4.8c0.9,1.7,2.1,3.2,3.6,4.4c2.1,1.8,4.7,2.6,7.4,2.6
					c2.5,0,5.1,0.1,7.5,0.2c3.8,0.1,7.6,0.5,11.3,1.2c5.4,1,10.5,2.5,15,5.6c0.5,0.3,0.7,0.2,1-0.3c0.4-0.8,0.8-1.7,1.2-2.5
					c0.2-0.4,0.1-0.8-0.1-1.2c-1.6-1.9-3.2-3.9-5.1-5.6c-2-1.9-4.3-3.4-6.8-4.6c-2.8-1.3-5.8-2.2-8.9-2.7c-3.2-0.5-6.4-0.7-9.6-0.7
					c-2.9,0-5.8-0.1-8.7-0.4c-3-0.3-6-0.7-8.9-1.7C216.9,110.4,216.8,110.4,216.7,110.4z M206.5,122.1c3.8,0,7.5,0,11.3,0
					c0.2,0,0.4,0,0.7,0c0.3,0,0.4-0.3,0.2-0.5c-0.1-0.1-0.2-0.3-0.3-0.4c-1.5-1.6-2.6-3.5-3.5-5.5c-0.3-0.8-0.6-1.6-0.9-2.5
					c-0.2-0.5-0.5-0.8-1.1-0.7c-0.2,0-0.4,0-0.5,0c-2.8,0-5.5,0-8.3,0c-1.9,0-3.9,0-5.8,0c-5.1-0.2-9.9-1.5-14.4-4
					c-0.7-0.4-1.3-0.8-2-1.2c-0.2-0.1-0.4-0.3-0.7-0.1c-0.2,0.2-0.1,0.5-0.1,0.7c0.5,2.6,1.3,5.1,2.7,7.3c2.1,3.5,5,5.8,9,6.8
					c1.4,0.3,2.8,0.4,4.3,0.5C200.1,122.1,203.3,122.1,206.5,122.1z M384.1,122.1c3,0,6.1,0,9.1,0c0.8,0,1.6,0,2.5-0.1
					c4.8-0.4,8.5-2.7,11.1-6.8c1.5-2.4,2.4-5,2.9-7.8c0,0,0-0.1,0-0.2c0-0.4-0.2-0.6-0.6-0.4c-0.2,0.1-0.4,0.2-0.6,0.3
					c-2.7,1.7-5.6,3-8.8,3.9c-3.2,0.9-6.4,1.2-9.7,1.2c-4,0-8,0-11.9,0c-1.2,0-1.2,0-1.6,1.2c-1,2.9-2.4,5.5-4.5,7.8
					c0,0-0.1,0.1-0.1,0.2c-0.2,0.3-0.1,0.5,0.2,0.6c0.2,0,0.4,0,0.7,0C376.7,122.1,380.4,122.1,384.1,122.1z M327.9,133.9
					c0,0.2,0,0.4,0.1,0.5c0.4,1.8,0.6,3.6,0.7,5.4c0,0.9,0.3,1,1.1,0.6c2-1.1,4.1-1.9,6.3-2.5c4.8-1.3,9.7-1.9,14.7-2.1
					c1.8-0.1,3.7-0.1,5.6-0.1c2.5,0,4.6-1,6.1-3.1c1.4-1.9,2.2-4.1,2.6-6.4c0.1-0.5-0.1-0.8-0.7-0.7c-1.6,0.3-3.3,0.3-5,0.3
					c-4.4,0-8.8,0.2-13.1,0.8c-3.7,0.5-7.4,1.2-10.9,2.5c-2.4,0.9-4.6,2-6.6,3.5c-0.2,0.1-0.4,0.3-0.6,0.5
					C328,133.5,328,133.8,327.9,133.9z M262.7,134.1c0-0.4-0.1-0.7-0.3-0.9c-0.2-0.2-0.5-0.4-0.8-0.6c-2.3-1.6-4.8-2.8-7.4-3.7
					c-4.2-1.4-8.5-2.1-12.9-2.5c-3.8-0.3-7.6-0.5-11.3-0.5c-1.2,0-2.4,0-3.5-0.3c-0.1,0-0.2,0-0.4,0c-0.3,0-0.4,0.2-0.5,0.4
					c0,0.1,0,0.2,0,0.4c0.3,1.8,0.9,3.5,1.8,5c1.6,2.9,4,4.4,7.3,4.3c1.6,0,3.2,0,4.9,0.1c3,0.1,5.9,0.4,8.8,0.8
					c4.5,0.7,8.8,1.7,12.8,3.9c0.5,0.2,0.8,0,0.8-0.5c0-0.1,0-0.1,0-0.2c0.1-1.8,0.3-3.6,0.6-5.3
					C262.6,134.4,262.7,134.2,262.7,134.1z M212.1,134.2c4.1,0,8.1,0,12.2,0c0.2,0,0.4,0,0.6,0c0.5,0,0.7-0.3,0.4-0.8
					c-0.2-0.3-0.4-0.7-0.6-1c-1-2-1.6-4.1-2-6.3c-0.2-1.2-0.3-1.2-1.5-1.2c-7.9,0-15.8,0-23.7,0c-0.5,0-1,0-1.6,0
					c-2.4-0.1-4.8-0.5-7-1.6c-0.3-0.1-0.7-0.3-1-0.5c-0.5-0.2-0.7,0-0.6,0.5c0,0.1,0,0.2,0,0.3c0.4,1.7,1.1,3.4,2.1,4.9
					c1.9,3,4.6,4.8,8,5.5c1.1,0.2,2.2,0.2,3.3,0.3C204.5,134.2,208.3,134.2,212.1,134.2z M382.2,124.8c-4.2,0-8.4,0-12.6,0
					c-0.2,0-0.4,0-0.6,0c-0.5,0-0.8,0.2-0.9,0.7c0,0.2-0.1,0.4-0.1,0.6c-0.4,2.5-1.2,4.9-2.5,7c0,0.1-0.1,0.2-0.1,0.3
					c-0.1,0.3,0,0.6,0.4,0.6c0.2,0,0.4,0,0.6,0c7.9,0,15.8,0,23.7,0c0.7,0,1.5,0,2.2-0.1c3.7-0.4,6.6-2,8.8-5.1
					c1.2-1.7,1.9-3.5,2.5-5.5c0-0.1,0-0.2,0-0.4c0-0.3-0.2-0.5-0.5-0.4c-0.2,0-0.4,0.1-0.5,0.2c-1.1,0.5-2.2,0.9-3.4,1.2
					c-1.7,0.4-3.5,0.6-5.3,0.6C389.8,124.8,386,124.8,382.2,124.8z M377.1,136.9c-4.7,0-9.3,0-14,0c-0.2,0-0.5,0-0.8,0
					c-0.7,0.1-1.4,0.3-1.6,1.4c0,0.1-0.1,0.3-0.1,0.5c-0.6,2.2-1.5,4.4-2.7,6.3c-0.1,0.1-0.1,0.2-0.2,0.4c-0.2,0.4,0,0.6,0.3,0.7
					c0.2,0,0.5,0,0.7,0c7.5,0,14.9,0,22.4,0c0.5,0,1,0,1.6,0c2.2-0.1,4.3-0.5,6.2-1.5c3.4-1.6,5.7-4.3,7.3-7.7
					c0-0.1,0.1-0.2,0.1-0.3c0-0.3-0.1-0.5-0.5-0.5c-0.1,0-0.2,0-0.2,0c-1.8,0.5-3.7,0.8-5.6,0.7
					C385.7,136.9,381.4,136.9,377.1,136.9z M220,146.2c4,0,7.9,0,11.8,0c0.2,0,0.4,0,0.6,0c0.6,0,0.8-0.3,0.4-0.8
					c-1.4-2.2-2.3-4.6-3-7c-0.2-0.8-0.8-1.3-1.7-1.4c-0.2,0-0.5,0-0.8,0c-8.8,0-17.6,0-26.5,0c-0.8,0-1.5,0-2.3,0
					c-1.3-0.1-2.5-0.3-3.8-0.7c-0.2,0-0.4-0.1-0.6,0c-0.1,0.2-0.1,0.4,0,0.6c0.2,0.5,0.4,1,0.7,1.5c2,3.6,4.9,6,8.8,7.2
					c1.7,0.5,3.5,0.7,5.3,0.7C212.8,146.2,216.4,146.2,220,146.2z M322.3,123.6c0-0.9-0.1-1.8-0.1-2.8c0-0.6-0.1-1.2-0.2-1.8
					c-0.5-3.2-1.5-6.2-2.9-9c-0.5-1-0.7-1.1-1.9-0.8c-1.8,0.4-3.4,1.2-5,2.2c-0.8,0.5-0.8,0.8,0,1.3c0.8,0.5,1.5,1.2,2.1,1.9
					c4.4,5.4,1.8,13.6-4.9,15.5c-2.5,0.6-4.9,0.4-7.1-0.8c-0.8-0.4-1-0.3-1.2,0.6v0c-0.7,3.4-1.1,6.9-1.3,10.5c0,0.1,0,0.2,0,0.3
					c0,0.4,0.3,0.6,0.7,0.4c0.2-0.1,0.4-0.2,0.6-0.3c1.7-0.8,3.4-1.7,5.2-2.4c3.2-1.4,6.6-2.3,10.1-3c1.1-0.2,2.2-0.4,3.3-0.6
					c0.5-0.1,0.9-0.4,1-0.9c0-0.1,0.1-0.3,0.1-0.5C321.8,130.2,322.3,126.9,322.3,123.6z M268.6,123.6c0,2.4,0.2,4.7,0.8,7
					c0.2,1,0.6,2,0.9,3c0.1,0.5,0.5,0.8,1.1,0.9c0.4,0,0.8,0.1,1.2,0.2c3.7,0.6,7.3,1.5,10.8,3.1c2.2,1,4.4,2.1,6.5,3.2
					c0.2,0.1,0.3,0.2,0.5,0.3c0.3,0.1,0.5,0,0.6-0.3c0-0.1,0-0.3,0-0.5c0-0.7,0-1.5-0.1-2.2c-0.2-2.8-0.5-5.5-1.1-8.3
					c0-0.1,0-0.3-0.1-0.4c-0.1-0.4-0.4-0.5-0.8-0.3c-0.2,0.1-0.4,0.2-0.6,0.3c-3.8,1.8-8.4,0.9-11.2-2.1c-4-4.4-3.3-11.1,1.6-14.6
					c0.8-0.5,0.8-0.8,0-1.3c-1.5-0.9-3.1-1.7-4.8-2.1c-1.2-0.3-1.4-0.2-1.9,0.9C269.7,114.4,268.6,118.9,268.6,123.6z M237.9,138.4
					c-1.3,0-2.7,0-4,0c-0.1,0-0.2,0-0.4,0c-0.3,0-0.4,0.2-0.4,0.5c0,0.1,0,0.2,0.1,0.4c0.6,1.9,1.5,3.8,2.8,5.4
					c1.6,2,3.7,3.1,6.3,3.1c1.8,0,3.5,0.1,5.3,0.3c5.4,0.6,10.5,2.1,15.4,4.6c0.1,0.1,0.3,0.1,0.4,0.2c0.3,0.1,0.5-0.1,0.4-0.4
					c0-0.2-0.1-0.4-0.2-0.6c-0.7-2-1.2-4.2-1.4-6.3c-0.1-0.8-0.4-1.4-1.1-1.8c-0.8-0.5-1.7-1-2.6-1.5c-2.4-1.2-5-1.9-7.6-2.4
					C246.6,139,242.2,138.6,237.9,138.4z M352.8,138.4c-3.1,0.1-6.2,0.4-9.3,0.8c-3.2,0.4-6.3,1.1-9.3,2.2c-1.7,0.6-3.3,1.4-4.8,2.5
					c-0.5,0.4-0.9,0.9-1,1.6c-0.2,2.2-0.8,4.5-1.5,6.6c0,0.1-0.1,0.2-0.1,0.4c0,0.4,0.1,0.6,0.5,0.4c0.1,0,0.3-0.1,0.4-0.2
					c3.7-1.9,7.5-3.2,11.6-4c3.1-0.6,6.1-0.9,9.3-0.9c2,0,3.7-0.7,5.2-2.2c1.8-1.8,2.9-4,3.7-6.4c0,0,0-0.1,0-0.2
					c0-0.3-0.1-0.5-0.4-0.6c-0.1,0-0.2,0-0.4,0C355.5,138.4,354.2,138.4,352.8,138.4z M296.9,175.5c0.2,2.6,0.7,5.1,1.5,7.4
					c1.5,4.7,4,8.9,7.1,12.7c0.7,0.8,1.4,1.6,2.2,2.4c0.4,0.4,0.9,0.6,1.5,0.4c0.1,0,0.2,0,0.3,0c2.3-0.6,4.6-1.5,6.7-2.7
					c0.4-0.2,0.9-0.5,1.3-0.8c0.4-0.3,0.4-0.5,0-0.9c-0.1-0.1-0.2-0.1-0.4-0.2c-2.1-1.3-3.9-3-5.5-4.9c-2.3-2.6-4.2-5.5-5.8-8.6
					c-1-1.8-1.8-3.7-2.6-5.7c-0.3-0.7-0.5-0.8-1.2-0.7c-1.4,0.2-2.9,0.4-4.3,0.6C297.1,174.7,296.9,174.9,296.9,175.5z M294.1,175.5
					c0-0.6-0.2-0.8-0.8-0.9c0,0-0.1,0-0.2,0c-1.4-0.2-2.9-0.4-4.4-0.6c-0.8-0.1-1,0-1.3,0.7c-0.1,0.2-0.1,0.4-0.2,0.6
					c-1.7,4.1-3.7,7.9-6.3,11.4c-2.1,2.8-4.5,5.4-7.5,7.2c-0.1,0-0.2,0.1-0.3,0.2c-0.2,0.2-0.2,0.4,0,0.6c0.1,0.1,0.3,0.3,0.5,0.4
					c2.3,1.3,4.8,2.4,7.4,3.1c1.3,0.3,1.4,0.3,2.2-0.7c2.2-2.8,4.2-5.6,5.9-8.7c1.7-3,3.2-6.2,4.2-9.6
					C293.5,178,293.8,176.7,294.1,175.5z M321.7,192.9c0.4-0.1,0.7-0.2,1.1-0.4c1.7-0.8,3.3-2,4.7-3.2c0.1-0.1,0.2-0.2,0.2-0.3
					c0.2-0.2,0.2-0.4,0-0.6c-0.2-0.1-0.4-0.3-0.6-0.4c-2.1-1.3-4-2.7-5.8-4.4c-3.8-3.5-6.7-7.5-8.7-12.2c-0.4-1-0.6-1-1.6-0.6
					c-1.3,0.6-2.7,1.2-4.1,1.8c-0.2,0.1-0.4,0.1-0.7,0.2c-0.4,0.2-0.5,0.4-0.4,0.9c0,0.1,0.1,0.2,0.1,0.3c1.2,2.9,2.6,5.7,4.3,8.4
					c1.8,2.8,3.8,5.4,6.3,7.5c1.2,1,2.5,1.8,3.9,2.5C320.9,192.7,321.3,192.8,321.7,192.9z M269,192.9c0.2,0,0.4-0.1,0.6-0.2
					c0.5-0.2,1-0.4,1.5-0.7c2.4-1.3,4.4-3.2,6.1-5.3c3.2-3.8,5.5-8.1,7.4-12.7c0.3-0.7,0.2-1-0.5-1.3c0,0,0,0-0.1,0
					c-1.5-0.5-3.1-1.2-4.5-2c-0.8-0.4-1-0.3-1.3,0.5c0,0,0,0.1-0.1,0.2c-0.8,2-1.9,4-3.2,5.8c-3,4.4-6.7,7.9-11.2,10.7
					c-0.2,0.1-0.3,0.2-0.5,0.3c-0.3,0.3-0.3,0.5,0,0.8c0.2,0.2,0.4,0.4,0.6,0.5c1.3,1.1,2.8,2.1,4.4,2.9
					C268.3,192.7,268.7,192.8,269,192.9z M295.4,95.3c-4.5,0-8.7,1.1-12.6,3.3c-0.9,0.5-1.9,1.2-2.8,1.8c-0.1,0.1-0.3,0.3-0.3,0.5
					c0,0.2,0.3,0.3,0.5,0.3c0.1,0,0.2,0,0.3,0c0.9,0,1.8,0,2.7,0.1c1.9,0.1,3.8,0.6,5.6,1.4c0.9,0.4,1.8,1,2.7,1.5
					c2.4,1.3,4.8,1.3,7.2,0.1c0.5-0.3,1.1-0.6,1.6-0.9c1.5-0.8,3.1-1.5,4.9-1.8c1.5-0.3,2.9-0.4,4.4-0.4c0.3,0,0.5,0,0.8,0
					c0.1,0,0.3-0.1,0.4-0.2c0-0.1-0.1-0.3-0.2-0.4c-0.1-0.1-0.3-0.2-0.4-0.3C305.9,97,300.9,95.4,295.4,95.3z M294.6,200.4
					c3.1,0,6.1-0.4,9.1-1c0.1,0,0.3,0,0.4-0.1c0.4-0.1,0.5-0.4,0.2-0.8c-0.1-0.1-0.2-0.2-0.3-0.3c-1.7-1.9-3.2-4-4.5-6.2
					c-1.6-2.7-2.9-5.5-3.9-8.4c-0.1-0.3-0.1-0.7-0.5-0.7c-0.3,0-0.4,0.4-0.5,0.6c-0.3,0.6-0.5,1.3-0.8,2c-1.8,4-4.1,7.8-6.7,11.3
					c-0.4,0.6-0.9,1.2-1.3,1.8c-0.3,0.4-0.2,0.7,0.3,0.9c0.2,0.1,0.4,0.1,0.6,0.1C289.3,200.2,291.9,200.4,294.6,200.4z
					 M296.7,154.9c0,2.4,0,4.8,0,7.2c0,0.1,0,0.3,0,0.5c0,0.6,0.2,0.8,0.8,0.8c0.3,0,0.5,0,0.8,0c3.7-0.5,7.1-1.9,10.2-4.1
					c0.2-0.1,0.4-0.3,0.6-0.4c0.4-0.4,0.5-0.7,0.1-1.1c-0.3-0.4-0.6-0.8-1-1.1c-2.9-3.4-5.8-6.8-8.8-10.2c-0.1-0.2-0.3-0.4-0.5-0.5
					c-0.2-0.1-0.4-0.2-0.6-0.1c-0.9,0.2-1.6,1-1.6,2C296.7,150,296.7,152.5,296.7,154.9z M294,154.9c0-0.8,0-1.7,0-2.6
					c0-1.7,0-3.3,0-5c0-0.4-0.1-0.8-0.5-1.1c-0.9-0.7-1.3-0.7-2.1,0.1c-3,3.5-6.1,7-9.1,10.6c-0.2,0.3-0.5,0.6-0.7,0.9
					c-0.3,0.4-0.2,0.6,0.1,1c0.2,0.1,0.4,0.3,0.6,0.4c3.1,2.2,6.4,3.6,10.2,4.1c0.3,0,0.6,0,0.9,0c0.4,0,0.6-0.2,0.7-0.6
					c0-0.2,0-0.4,0-0.5C294,159.7,294,157.4,294,154.9z M286.7,142.6c-0.2,0-0.5,0-0.7,0.1c-4,0.7-7.9,1.5-11.8,2.3
					c-1,0.2-1.2,0.4-0.9,1.4c0.9,3.5,2.6,6.5,4.9,9.3c0.1,0.1,0.2,0.3,0.4,0.4c0.3,0.2,0.5,0.2,0.8,0c0.2-0.1,0.3-0.3,0.5-0.5
					c2.5-2.9,5.1-5.8,7.5-8.8c0.6-0.7,1.2-1.4,1.8-2.1c0.3-0.4,0.2-0.7-0.1-0.9c-0.6-0.3-1.2-0.6-1.8-0.9
					C287.1,142.7,286.9,142.6,286.7,142.6z M304,142.6c-0.1,0-0.1,0-0.2,0c-0.9,0.1-1.6,0.6-2.4,1.1c-0.2,0.1-0.2,0.4,0,0.7
					c0.1,0.2,0.3,0.4,0.5,0.6c3,3.5,6,7,9.1,10.5c0.1,0.1,0.2,0.2,0.3,0.3c0.3,0.2,0.5,0.2,0.8,0c0.2-0.2,0.4-0.4,0.6-0.6
					c2.2-2.7,3.8-5.7,4.7-9.1c0-0.1,0.1-0.3,0.1-0.5c0-0.4-0.1-0.6-0.5-0.7c-0.2,0-0.4-0.1-0.6-0.1c-3.9-0.7-7.8-1.5-11.7-2.2
					C304.4,142.6,304.2,142.6,304,142.6z M306.1,127.6c4.9,0,8.2-3.9,7.4-8.1c-0.4-2.4-1.7-4.1-3.9-5.2c-0.6-0.3-0.9-0.2-1.4,0.2
					c-0.4,0.4-0.7,0.8-1.1,1.2c-0.2,0.3-0.5,0.6-0.7,0.9c-0.2,0.4-0.1,0.6,0.3,0.8c0.1,0,0.3,0,0.4,0.1c1.3,0.3,2.2,1.4,2.4,2.7
					c0.1,1.3-0.6,2.6-1.8,3.2c-1.2,0.5-2.6,0.3-3.6-0.6c-0.1-0.1-0.2-0.2-0.4-0.4c-0.2-0.2-0.4-0.1-0.6,0.1
					c-0.1,0.1-0.1,0.2-0.2,0.3c-0.2,0.6-0.4,1.2-0.7,1.8c-0.3,0.8-0.1,1.1,0.6,1.6C304,127.2,305.3,127.6,306.1,127.6z M277.3,120.2
					c0,3.6,1.9,6.3,4.9,7.2c2.1,0.6,4.1,0.3,5.9-0.8c0.6-0.4,0.8-0.7,0.5-1.5c-0.2-0.7-0.5-1.4-0.8-2.1c0-0.1-0.1-0.3-0.2-0.4
					c-0.2-0.2-0.3-0.2-0.6,0c-0.2,0.2-0.4,0.4-0.6,0.6c-1.3,1.3-3.4,1.2-4.6-0.2c-1.2-1.3-1-3.4,0.4-4.6c0.5-0.4,1.1-0.6,1.8-0.7
					c0.5,0,0.6-0.3,0.3-0.7c-0.6-0.8-1.3-1.6-1.9-2.3c-0.3-0.3-0.7-0.4-1.1-0.2c-0.1,0-0.3,0.1-0.4,0.2
					C278.5,115.9,277.4,117.9,277.3,120.2z M272.4,140c0,0.5,0,1.1,0.1,1.6c0,0.5,0.3,0.7,0.9,0.7c0.1,0,0.2,0,0.3,0
					c2.5-0.5,5.1-0.9,7.6-1.4c0.1,0,0.3,0,0.5-0.1c0.3-0.1,0.3-0.4,0-0.6c-0.1-0.1-0.3-0.2-0.5-0.2c-2-0.8-4-1.4-6-1.8
					c-0.5-0.1-1.1-0.2-1.7-0.3c-0.6-0.1-0.9,0.1-1,0.7C272.5,138.9,272.5,139.4,272.4,140z M318.1,140.1L318.1,140.1
					c0-0.4,0-0.8,0-1.3c0-0.1,0-0.1,0-0.2c0-0.6-0.3-0.8-0.9-0.7c-0.6,0.1-1.1,0.2-1.7,0.4c-2,0.5-4.1,1-6,1.7
					c-0.2,0.1-0.6,0.1-0.5,0.5c0,0.3,0.3,0.3,0.6,0.4c0.9,0.2,1.8,0.3,2.8,0.5c1.6,0.3,3.2,0.6,4.8,0.9c0.7,0.1,1-0.1,1-0.8
					C318.1,141,318.1,140.6,318.1,140.1z"/>
			</g>
		</g>
	</g>
	<g id="PTtfJ8_1_">
		<g>
			<path fill="#33ff00" d="M246.6,65.2c0-0.2-0.1-0.3-0.2-0.5c-1.1-2.5-2.2-5-3.3-7.4c-0.3-0.7-0.3-0.7,0.3-1.2
				c0.4-0.3,0.7-0.6,1.1-0.9c0.4-0.4,0.5-0.4,1,0c2.3,1.5,4.6,2.9,6.8,4.4c0.2,0.1,0.4,0.2,0.6,0.3c0,0,0,0,0.1-0.1
				c0-0.2-0.1-0.4-0.2-0.6c-1-2.3-2-4.7-3.1-7c-0.5-1.1-0.5-1.1,0.4-1.8c0.2-0.1,0.4-0.3,0.6-0.5c0.4-0.3,0.6-0.3,0.8,0.2
				c0.5,1.1,1,2.3,1.5,3.5c1.3,3,2.6,5.9,3.9,8.9c0.2,0.5,0.2,0.6-0.2,1c-0.3,0.2-0.5,0.5-0.8,0.7c-0.4,0.3-0.5,0.3-1,0
				c-1.7-1.1-3.4-2.2-5.2-3.3c-0.9-0.6-1.8-1.1-2.7-1.7c-0.1-0.1-0.3-0.1-0.4-0.2c0,0,0,0-0.1,0c0,0.2,0.1,0.4,0.2,0.6
				c1.1,2.5,2.2,5.1,3.3,7.6c0.1,0.3,0.2,0.6,0.4,0.9c0.1,0.3,0.1,0.5-0.1,0.7c-0.4,0.3-0.7,0.6-1.1,1c-0.3,0.2-0.5,0.1-0.8,0
				c-1.2-0.8-2.5-1.6-3.7-2.4c-2.5-1.6-5.1-3.3-7.6-5c-0.1,0-0.2-0.1-0.3-0.2c-0.2-0.1-0.2-0.3,0-0.5c0.4-0.4,0.9-0.8,1.4-1.1
				c0.2-0.2,0.5-0.1,0.7,0c1.2,0.8,2.4,1.5,3.6,2.3c1.1,0.7,2.3,1.5,3.5,2.2c0.1,0.1,0.3,0.1,0.4,0.2
				C246.5,65.3,246.6,65.2,246.6,65.2z"/>
			<path fill="#33ff00" d="M315.5,43.2c0,2.3-1.1,3.9-3.3,4.8c-0.7,0.3-0.7,0.3-0.3,1c0.8,1.2,1.6,2.5,2.5,3.8
				c0.1,0.1,0.2,0.2,0.2,0.4c0,0.1,0.1,0.3,0,0.4c0,0-0.2,0.1-0.3,0.1c-0.8-0.1-1.6-0.2-2.4-0.4c-0.2,0-0.4-0.3-0.6-0.5
				c-0.7-1-1.4-2.1-2.1-3.2c-0.3-0.4-0.4-0.5-0.9-0.4c-0.7,0.2-1.5,0.4-2.2,0.5c-0.4,0.1-0.5,0.3-0.6,0.7c0,0.3-0.1,0.7-0.2,1.1
				c-0.1,0.4-0.2,0.5-0.6,0.4c-0.4,0-0.8-0.1-1.2-0.2c-0.6-0.1-0.7-0.2-0.5-0.8c0.5-2.9,1.1-5.7,1.6-8.6c0.2-1.3,0.5-2.6,0.7-4
				c0.1-0.6,0.2-0.7,0.8-0.6c1.9,0.3,3.8,0.7,5.7,1.1c2,0.4,3.5,1.9,3.7,3.8C315.5,42.7,315.5,42.9,315.5,43.2z M313,43.3
				c0-1.3-0.6-2-1.7-2.2c-1.1-0.2-2.3-0.4-3.4-0.6c-0.4,0-0.5,0-0.6,0.4c-0.3,1.8-0.7,3.7-1,5.5c-0.1,0.4,0,0.6,0.5,0.5
				c1-0.2,2.1-0.4,3.1-0.7c0.6-0.1,1.2-0.3,1.7-0.6C312.5,45,313,44.2,313,43.3z"/>
			<path fill="#33ff00" d="M238.2,82c0,4.1-2.6,7.2-6.1,7.7c-1.1,0.1-2.1,0-3.2-0.3c-0.9-0.4-1.8-0.7-2.6-1.2
				c-3.1-1.6-4.4-5.5-2.9-8.8c1.2-2.8,3.9-4.6,6.9-4.4c0.7,0,1.4,0.3,2.1,0.5c0.7,0.2,1.3,0.6,2,0.9C236.9,77.6,238.1,79.7,238.2,82
				z M235.7,82.3c0-1.5-0.7-2.8-2.3-3.6c-0.6-0.3-1.3-0.6-2-0.9c-0.4-0.2-1-0.3-1.5-0.3c-1.8,0-3.6,1.2-4.2,3.1
				c-0.8,2.2,0,4.5,2,5.4c0.6,0.3,1.2,0.6,1.9,0.9c0.6,0.3,1.2,0.4,1.9,0.4C233.8,87,235.6,85,235.7,82.3z"/>
			<path fill="#33ff00" d="M345.4,71.2c-2.3,0-3.8-0.7-5.1-1.8c-0.9-0.8-1.8-1.8-2.8-2.6c-0.3-0.3-0.7-0.6-1-1
				c-0.3-0.3-0.3-0.5,0-0.8c3.2-3.2,6.3-6.3,9.5-9.5c0.3-0.3,0.5-0.3,0.8,0c1.3,1.3,2.6,2.5,3.9,3.9c2.2,2.3,2.2,6.1,0,8.5
				c-0.6,0.7-1.3,1.4-2.1,2C347.5,70.8,346.2,71.2,345.4,71.2z M349.8,63.6c0-1-0.3-1.9-1.1-2.7c-0.6-0.6-1.2-1.2-1.8-1.8
				c-0.3-0.3-0.5-0.3-0.8,0c-1.5,1.5-3,3-4.5,4.5c-0.4,0.4-0.9,0.9-1.4,1.4c-0.3,0.3-0.3,0.4,0,0.7c0.4,0.5,0.9,0.9,1.4,1.4
				c0.4,0.4,0.9,0.7,1.4,1c1.5,0.9,3.1,0.6,4.4-0.6c0.4-0.4,0.9-0.9,1.3-1.3C349.5,65.5,349.8,64.6,349.8,63.6z"/>
			<path fill="#33ff00" d="M355.7,90.9c-0.1-0.1-0.3-0.2-0.4-0.4c-0.4-0.8-0.8-1.6-1.3-2.4c-0.9-1.7-1.8-3.4-2.7-5.1
				c-0.3-0.5-0.2-0.7,0.3-0.9c3.9-2,7.8-4.1,11.6-6.1c0.5-0.2,0.6-0.2,0.9,0.3c1.3,2.5,2.6,5,3.9,7.5c0.3,0.5,0.2,0.7-0.3,1
				c-0.3,0.2-0.7,0.4-1.1,0.5c-0.4,0.2-0.6,0.1-0.8-0.2c-0.9-1.7-1.8-3.5-2.7-5.2c0-0.1-0.1-0.2-0.1-0.3c-0.2-0.4-0.3-0.4-0.7-0.2
				c-0.5,0.3-1.1,0.6-1.7,0.9c-0.5,0.2-0.5,0.4-0.2,0.8c0.7,1.3,1.3,2.6,2,3.9c0.3,0.5,0.2,0.7-0.3,1c-0.3,0.2-0.7,0.3-1,0.5
				c-0.4,0.2-0.6,0.2-0.9-0.3c-0.6-1.1-1.2-2.3-1.8-3.5c-0.1-0.2-0.2-0.4-0.3-0.6c-0.1-0.2-0.3-0.3-0.5-0.1
				c-0.9,0.4-1.8,0.9-2.7,1.4c-0.3,0.1-0.2,0.4-0.1,0.7c0.6,1.1,1.2,2.2,1.7,3.3c0.3,0.7,0.7,1.4,1.1,2.1c0.2,0.5,0.2,0.6-0.3,0.9
				c-0.4,0.2-0.8,0.4-1.1,0.6C356,90.8,355.9,90.8,355.7,90.9z"/>
			<path fill="#33ff00" d="M270.6,55.7c-0.3,0-0.4-0.2-0.5-0.4c-0.3-0.9-0.5-1.8-0.8-2.7c-1-3.2-2-6.4-3.1-9.7
				c-0.2-0.6-0.1-0.7,0.5-1c0.3-0.1,0.7-0.2,1-0.3c0.5-0.1,0.6,0,0.8,0.4c0.4,1.4,0.8,2.7,1.3,4.1c0.6,2,1.2,4,1.9,5.9
				c0.1,0.5,0.2,0.5,0.8,0.4c1.1-0.3,2.3-0.7,3.4-1c0.6-0.2,0.7-0.1,0.9,0.4c0.1,0.4,0.2,0.7,0.3,1.1c0.1,0.4,0,0.6-0.4,0.8
				c-1.4,0.4-2.9,0.9-4.4,1.4c-0.5,0.1-1,0.3-1.5,0.5C270.8,55.6,270.7,55.7,270.6,55.7z"/>
			<path fill="#33ff00" d="M326.8,59.1c-0.2,0-0.3-0.1-0.4-0.1c-0.4-0.2-0.8-0.4-1.2-0.6c-0.4-0.2-0.5-0.4-0.2-0.8
				c1.2-2.4,2.4-4.8,3.7-7.1c0.7-1.4,1.4-2.8,2.2-4.3c0.3-0.5,0.4-0.6,1-0.3c0.3,0.2,0.7,0.3,1,0.5c0.4,0.2,0.5,0.4,0.2,0.8
				c-1,2.1-2.1,4.1-3.2,6.1c-0.9,1.7-1.8,3.5-2.7,5.3C327.1,58.8,326.9,59,326.8,59.1z"/>
		</g>
	</g>
</g>
</svg>
