<?xml version="1.0" encoding="utf-8"?>
<!-- Generator: Adobe Illustrator 18.1.1, SVG Export Plug-In . SVG Version: 6.00 Build 0)  -->
<!DOCTYPE svg PUBLIC "-//W3C//DTD SVG 1.1//EN" "http://www.w3.org/Graphics/SVG/1.1/DTD/svg11.dtd">
<svg version="1.1" id="Layer_1" xmlns="http://www.w3.org/2000/svg" xmlns:xlink="http://www.w3.org/1999/xlink" x="0px" y="0px"
	 width="450px" height="317px" viewBox="0 0 450 317" enable-background="new 0 0 450 317" xml:space="preserve">
<g>
	<g id="Emco7U_6_">
		<g>
			<g>
				<path fill-rule="evenodd" clip-rule="evenodd" fill="#D5C8A8" d="M83.9,213.1c-8,0-16,0-24,0c-4.8,0-9.4-0.7-13.8-2.4
					c-6.7-2.6-12-7-15.9-13.1c-2.4-3.6-4.1-7.6-5.1-11.8c-0.2-0.9-0.6-1.6-1.3-2.2c-6.3-5.6-9.6-12.8-11.2-20.9
					c-0.3-1.3-0.4-2.6-0.6-3.8c-0.1-1-0.5-1.8-1.1-2.5C6.7,151.6,4.1,146,2.3,140c-1.7-5.9-2.5-11.9-2.3-18c0-0.6,0-1.2,0.6-1.5
					c0.7-0.2,1.1,0.3,1.4,0.7c1.1,1.1,2,2.2,3.2,3.2c5,4.5,10.8,7.8,17.1,10.1c5.8,2.1,11.8,3.3,17.9,3.4c8.4,0.1,16.9,0.1,25.3,0.1
					c0.1,0,0.2,0,0.3,0c1.1-0.1,1.5-0.5,1.4-1.7c-0.2-1.7-0.4-3.4-0.5-5c-0.1-0.6-0.1-1.2-0.1-1.8c0-0.4,0.1-0.9,0.6-0.9
					c0.3-0.1,0.7,0.1,1,0.3c0.5,0.4,1,0.9,1.4,1.5c1.6,1.9,3.5,3.1,5.8,4c3.9,1.5,7.9,2.3,12,2.9c6.6,1,13.2,1.3,19.9,1.4
					c4.7,0,9.4,0.1,14.1,0.6c8.8,0.9,17.4,2.8,25.4,6.6c5.2,2.5,10,5.6,14.2,9.6c1.9,1.8,3.6,3.8,5.5,5.7c0.3,0.3,0.6,0.7,1,1
					c0.6,0.6,1.1,0.4,1.3-0.4c0-0.2,0.1-0.4,0.1-0.6c0.5-7.8,2.4-15.2,5.7-22.3c0.9-1.9,0.8-2.2-1.3-2.7c-2.5-0.6-4.8-1.5-6.8-3
					c-3-2.2-4.9-5.1-6-8.6c-1-2.9-1.4-5.9-1.6-8.9c-0.1-1.3-0.1-2.6-0.1-3.9c0-10.4,0-20.8,0-31.2c0-1.4,0-2.9,0.3-4.3
					c0.7-3.8,2.9-5.8,6.7-6.2c0.9-0.1,1.7-0.2,2.6-0.2c4.8,0,7.9,2.8,8.3,7.6c0.1,1.1,0.1,2.2,0.1,3.3c0,9.7,0,19.4,0,29.1
					c0,0.4,0,0.7,0,1.1c0.1,3.8,1.1,5.1,3.5,6.7c1.7,1.1,3.6,2,5.5,2.6c1.2,0.4,2.1,0.2,3.1-0.6c4-3.5,8.3-6.5,13.2-8.7
					c6.6-3.1,13.5-4.9,20.8-5.2c14.2-0.6,26.6,3.8,37.6,12.8c0.6,0.5,1.1,0.9,1.6,1.4c0.7,0.5,1.4,0.7,2.2,0.4
					c2.5-0.8,4.9-1.9,6.9-3.6c1.5-1.3,2.4-2.9,2.4-5c0-10.3,0-20.7,0-31c0-1.3,0-2.6,0.2-3.9c0.3-2.5,1.4-4.7,3.7-6
					c0.9-0.6,2-0.9,3.1-1c1.8-0.2,3.7-0.1,5.5,0.3c2.5,0.6,4.2,2.2,5,4.6c0.5,1.5,0.6,3,0.6,4.6c0,4.6,0,9.1,0,13.7
					c0,6.4,0,12.8,0,19.2c0,3-0.2,6-0.8,9c-0.6,3-1.7,5.9-3.6,8.4c-2.3,3.2-5.5,5.1-9.3,6.1c-0.6,0.2-1.1,0.3-1.7,0.4
					c-0.8,0.3-1,0.7-0.8,1.5c0.1,0.3,0.2,0.6,0.4,0.9c3.2,6.8,5.1,13.9,5.7,21.3c0,0.5,0.1,1,0.2,1.5c0.2,0.6,0.6,0.7,1.1,0.3
					c0.3-0.2,0.5-0.5,0.7-0.8c4.5-5.2,9.6-9.6,15.5-13c6.1-3.5,12.6-5.7,19.4-7.2c5.6-1.2,11.2-1.8,16.9-2c2.9-0.1,5.7-0.1,8.6-0.2
					c7.1-0.1,14.1-0.5,21.1-1.8c3.4-0.6,6.8-1.4,10.1-2.7c1.7-0.7,3.2-1.6,4.4-3c0.6-0.6,1.2-1.3,1.8-1.9c0.2-0.2,0.4-0.4,0.7-0.6
					c0.5-0.3,1-0.2,1.2,0.4c0.1,0.4,0.1,0.8,0,1.2c-0.2,2-0.4,4-0.6,6c-0.1,1.2,0.3,1.7,1.5,1.8c0.2,0,0.4,0,0.6,0
					c7.5,0,15.1,0,22.6,0c8,0,15.8-1.5,23.2-4.7c4.8-2.1,9.2-4.7,13.2-8.1c1.3-1.1,2.5-2.5,3.7-3.7c0.3-0.3,0.5-0.6,0.9-0.8
					c0.6-0.5,1.2-0.3,1.4,0.5c0.1,0.2,0.1,0.5,0.1,0.7c0.2,9.2-1.4,18-5.5,26.3c-1.4,2.8-3.1,5.4-5.2,7.8c-0.8,0.9-1.3,1.9-1.4,3.2
					c-0.7,5.9-2.4,11.5-5.4,16.7c-1.6,2.7-3.5,5.1-5.8,7.2c-1,0.9-1.5,1.9-1.9,3.2c-1.7,6.5-4.8,12.3-9.6,17.1
					c-5.2,5.2-11.5,8.2-18.8,9.3c-2.4,0.4-4.8,0.5-7.2,0.5c-16.3,0-32.7,0-49,0c-1.5,0-2.9,0.3-4.2,1c-2.8,1.5-5.8,2.2-9,2.2
					c-7,0-14,0.9-20.8,2.6c-7,1.8-13.6,4.3-19.8,8.1c-1.9,1.2-3.7,2.6-5.5,4c-0.8,0.6-1.5,1.4-2,2.2c-4.3,6.4-9.4,12-15.7,16.6
					c-1.3,1-1.4,1.4-0.8,2.9c2.3,6.1,5.7,11.6,9.9,16.6c5.3,6.3,11.6,11.5,18.9,15.5c1,0.6,2.1,1,3.2,1.6c0.3,0.1,0.5,0.2,0.8,0.4
					c0.8,0.5,0.9,1.1,0.4,1.9c-0.1,0.1-0.2,0.3-0.3,0.4c-4,4.2-8.2,8.1-13.3,11c-2,1.2-4.2,2.1-6.4,2.7c-0.8,0.2-1.7,0.7-2.4,1.2
					c-6.6,4.4-13.8,7.5-21.5,9.4c-1.3,0.3-2.5,0.5-3.8,0.3c-0.5-0.1-1.1,0-1.6,0.2c-5.1,1.2-10.2,2.1-15.4,2.6
					c-7.7,0.7-15.4,0.6-22.9-1.1c-2.6-0.6-5.1-1.7-7.8-1.6c-8.2-1.7-15.8-4.9-22.8-9.6c-0.9-0.6-1.9-1.1-3-1.4
					c-2.8-0.7-5.2-2-7.6-3.5c-4.4-2.8-8.1-6.3-11.6-10c-0.2-0.2-0.3-0.4-0.4-0.6c-0.3-0.6-0.3-1.1,0.3-1.5c0.2-0.2,0.5-0.3,0.7-0.4
					c5-2.1,9.5-5.1,13.7-8.5c7.1-5.8,12.7-12.8,16.7-21c0.7-1.4,1.3-2.9,1.9-4.4c0.5-1.4,0.4-1.8-0.8-2.7c-2.9-2.1-5.5-4.5-8-7
					c-2.6-2.7-5.1-5.6-7.1-8.8c-1.2-1.8-2.6-3.2-4.3-4.5c-4.1-3.1-8.6-5.4-13.3-7.3c-8.5-3.4-17.3-5.3-26.4-5.9
					c-1.7-0.1-3.4-0.2-5.2-0.2c-3.1,0-6.1-0.7-8.8-2.2c-1.2-0.7-2.5-1-3.9-1C101.3,213.1,92.6,213.1,83.9,213.1
					C83.9,213.1,83.9,213.1,83.9,213.1z M286.3,97.4L286.3,97.4c0-5.9,0-11.7,0-17.6c0-0.9-0.1-1.9-0.2-2.8c-0.2-1.1-0.9-1.8-2-2
					c-0.8-0.1-1.7-0.2-2.5-0.1c-1.6,0.1-2.5,0.8-2.7,2.4c-0.2,0.9-0.2,1.9-0.2,2.8c0,10.1,0,20.3,0,30.4c0,0.8,0,1.5,0,2.3
					c0,2.1-0.8,3.9-2,5.6c-1.5,2.1-3.6,3.5-5.8,4.7c-5.2,2.7-10.7,4-16.5,4.2c-1.9,0.1-3.7,0.1-5.6,0.2c-4.3,0.3-8.3,1.5-11.9,3.7
					c-1.1,0.6-2.2,1.3-3.3,1.8c-5.4,2.6-10.8,2.7-16.3,0.3c-1.1-0.5-2.3-1.1-3.3-1.8c-3.6-2.2-7.5-3.5-11.6-3.9
					c-1.9-0.2-3.9-0.3-5.8-0.3c-4.5-0.1-8.9-0.9-13.1-2.4c-2.5-0.9-4.9-2.1-7-3.7c-3.2-2.5-5.1-5.6-4.9-9.8c0-0.6,0-1.1,0-1.7
					c0-9.9,0-19.8,0-29.8c0-0.9-0.1-1.9-0.2-2.8c-0.3-1.3-1.1-2-2.5-2.1c-0.7-0.1-1.4,0-2.2,0.1c-1.7,0.2-2.4,0.8-2.6,2.5
					c-0.1,0.9-0.1,1.9-0.1,2.8c0,10.4,0,20.8,0,31.3c0,1,0,1.9,0,2.9c0.2,3.1,0.5,6.2,1.7,9.1c1.5,3.7,4.1,6.1,8,7.1
					c1.7,0.5,3.5,0.6,5.3,0.8c1.9,0.1,3.7,0.3,5.5,0.8c6.6,1.6,12.3,4.9,17.3,9.4c4.8,4.3,8.5,9.5,11.4,15.3
					c4.2,8.4,6.5,17.5,7.8,26.8c0.8,5.7,1.2,11.4,1.3,17.2c0,1.4,0.8,2.1,1.9,2.6c1.1,0.5,1.9,0,2.7-0.6c0.8-0.6,1-1.4,1-2.4
					c0.1-3.2,0.2-6.4,0.5-9.6c0.5-6.9,1.6-13.7,3.5-20.4c2.1-7.5,5.1-14.7,9.6-21.1c4.5-6.4,10.2-11.5,17.3-14.9
					c4.1-1.9,8.4-3.2,13.1-3.3c1,0,2.1-0.2,3.1-0.3c5.4-0.9,8.8-4,10.2-9.2c0.8-3,1.1-6,1.2-9.1C286.4,107.6,286.3,102.5,286.3,97.4
					z M225,257.2c0.4,0,0.8,0,1.2,0c0.5,0,1.1-0.1,1.6-0.1c9-0.4,17.5-2.8,25.4-7.1c10.2-5.6,18.2-13.5,23.7-23.8
					c5.1-9.5,7.3-19.6,6.7-30.3c-0.2-4.7-1-9.3-2.4-13.8c-0.1-0.3-0.2-0.6-0.3-0.9c-0.2-0.3-0.4-0.6-0.6-0.6c-0.2,0-0.5,0.3-0.6,0.6
					c-0.2,0.4-0.3,1-0.5,1.4c-0.7,1.9-1.3,3.8-2,5.7c-0.4,1.1-1,1.9-2.3,2.2c-0.9,0.2-1.2,0.7-1.2,1.7c0,0.6,0,1.1,0.1,1.7
					c0.2,3.1,0,6.2-0.4,9.2c-1.8,12.8-7.6,23.5-17.5,31.8c-10.2,8.5-22,12.3-35.2,11.1c-14.2-1.3-25.6-7.9-34.3-19.1
					c-7.4-9.6-10.7-20.6-10.3-32.7c0-0.8,0.1-1.5,0.1-2.3c0-0.7-0.2-1.3-0.9-1.5c-1-0.4-1.6-1.2-1.9-2.2c-0.7-2.1-1.4-4.1-2.2-6.2
					c-0.2-0.5-0.2-1-0.4-1.4c-0.2-0.3-0.4-0.8-0.7-0.9c-0.5-0.1-0.6,0.4-0.8,0.8c-0.3,0.8-0.6,1.6-0.8,2.3c-1.9,6.6-2.5,13.3-2,20.2
					c1,13.1,5.8,24.6,14.5,34.4C192.7,250.5,207.5,256.9,225,257.2z M282,171.3c0.2,0.4,0.2,0.8,0.4,1c0.9,1.6,1.8,3.2,2.7,4.8
					c0.5,0.8,0.9,0.9,1.7,0.5c0.2-0.1,0.4-0.2,0.5-0.4c3-2,6.1-3.8,9.4-5.2c7.6-3.2,15.6-5,23.7-6.2c8.8-1.3,17.7-1.7,26.5-1.8
					c1.9,0,3.9,0,5.8-0.1c4.5-0.3,8.6-1.7,12.3-4.5c2.5-1.9,4.6-4.3,6.3-6.9c2.3-3.5,3.8-7.4,5-11.4c0.1-0.5,0.4-1-0.1-1.4
					c-0.5-0.4-0.9-0.2-1.4,0c-0.1,0-0.2,0.1-0.3,0.1c-2.2,0.6-4.4,1.2-6.6,1.7c-7.1,1.5-14.2,2-21.4,2.2c-3.4,0.1-6.9,0.1-10.3,0.2
					c-6,0.2-12,0.9-17.8,2.2c-5.5,1.3-10.8,3.1-15.7,5.8c-5.2,2.9-9.8,6.5-13.7,11c-2,2.3-4,4.7-6,7.1
					C282.5,170.3,282.2,170.9,282,171.3z M74.6,139.5c-0.7,0-1,0.3-1,0.9c0,0.4,0.1,0.7,0.2,1.1c0.9,3.2,2.1,6.2,3.7,9.1
					c1.8,3.2,4,6.1,6.8,8.4c4.1,3.4,8.9,4.9,14.1,5.1c4.8,0.1,9.6,0.2,14.4,0.4c7.3,0.3,14.5,1,21.6,2.3c10.2,1.9,20,4.8,28.6,10.8
					c0.9,0.7,1.5,0.5,2-0.5c0.8-1.6,1.5-3.2,2.3-4.9c0.4-0.8,0.3-1.6-0.3-2.3c-3-3.7-6.1-7.5-9.6-10.7c-3.9-3.6-8.2-6.5-13-8.7
					c-5.4-2.5-11.2-4.1-17.1-5.2c-6.1-1.1-12.2-1.4-18.4-1.4c-5.6,0-11.1-0.2-16.7-0.7c-5.8-0.6-11.5-1.5-17-3.3
					C75,139.6,74.8,139.6,74.6,139.5z M55.2,161.9c7.2,0,14.4,0,21.7,0c0.4,0,0.9,0,1.3-0.1c0.6-0.1,0.7-0.6,0.4-1.1
					c-0.2-0.3-0.4-0.6-0.7-0.8c-2.9-3.1-5.1-6.7-6.7-10.6c-0.7-1.6-1.2-3.1-1.8-4.7c-0.4-1-1-1.5-2.1-1.5c-0.4,0-0.7,0-1.1,0
					c-5.3,0-10.6,0-15.8,0c-3.7,0-7.4,0-11.1-0.1c-9.8-0.4-19-2.9-27.6-7.7c-1.3-0.7-2.6-1.6-3.9-2.3c-0.4-0.2-0.8-0.7-1.4-0.3
					c-0.5,0.4-0.3,0.9-0.2,1.4c1,4.9,2.6,9.6,5.1,14c4,6.7,9.6,11.1,17.3,12.9c2.7,0.6,5.4,0.9,8.1,0.9
					C42.9,161.9,49,161.9,55.2,161.9z M394.8,161.9c5.8,0,11.6,0,17.5,0c1.6,0,3.2,0,4.7-0.2c9.2-0.9,16.3-5.1,21.2-13
					c2.9-4.6,4.5-9.6,5.6-14.8c0-0.1,0.1-0.3,0.1-0.4c0.1-0.9-0.4-1.2-1.2-0.8c-0.4,0.2-0.7,0.4-1.1,0.7c-5.2,3.3-10.8,5.8-16.8,7.5
					c-6,1.7-12.2,2.3-18.4,2.3c-7.6,0-15.2,0-22.8,0c-2.3,0-2.4,0.1-3.2,2.3c-1.9,5.5-4.6,10.6-8.6,14.9c-0.1,0.1-0.2,0.2-0.3,0.3
					c-0.3,0.6-0.1,1.1,0.5,1.2c0.4,0.1,0.9,0.1,1.3,0.1C380.5,161.9,387.6,161.9,394.8,161.9z M287.3,184.5c0.1,0.5,0.1,0.8,0.2,1
					c0.7,3.4,1.2,6.9,1.4,10.4c0.1,1.7,0.6,2,2.1,1.2c3.8-2.1,7.9-3.6,12.1-4.8c9.2-2.5,18.6-3.6,28.1-4c3.6-0.2,7.1-0.2,10.7-0.3
					c4.9-0.1,8.8-2,11.7-5.9c2.7-3.7,4.2-7.8,5-12.3c0.2-1-0.3-1.5-1.4-1.3c-3.1,0.6-6.3,0.6-9.4,0.6c-8.4,0-16.7,0.5-25,1.6
					c-7.1,0.9-14.1,2.4-20.8,4.8c-4.5,1.7-8.8,3.8-12.7,6.7c-0.4,0.3-0.9,0.7-1.2,1.1C287.6,183.8,287.4,184.2,287.3,184.5z
					 M162.6,185c0.1-0.8-0.2-1.3-0.6-1.7c-0.5-0.4-1-0.8-1.5-1.2c-4.3-3.2-9.2-5.4-14.2-7.1c-8-2.7-16.2-4-24.6-4.8
					c-7.2-0.7-14.5-0.9-21.7-0.9c-2.3,0-4.5-0.1-6.8-0.6c-0.2,0-0.5-0.1-0.7-0.1c-0.5,0-0.9,0.3-0.9,0.9c0,0.2,0,0.5,0.1,0.7
					c0.7,3.4,1.7,6.6,3.4,9.6c3,5.5,7.6,8.4,13.9,8.3c3.1,0,6.2,0.1,9.3,0.2c5.6,0.2,11.3,0.7,16.8,1.6c8.5,1.3,16.9,3.3,24.5,7.5
					c0.9,0.5,1.5,0.1,1.6-0.9c0-0.1,0-0.3,0-0.4c0.2-3.4,0.6-6.8,1.3-10.1C162.5,185.5,162.6,185.1,162.6,185z M65.8,185
					c7.8,0,15.5,0,23.3,0c0.4,0,0.8,0,1.2,0c1.1-0.1,1.4-0.6,0.9-1.5c-0.3-0.7-0.8-1.3-1.1-2c-2-3.8-3.2-7.9-3.9-12
					c-0.4-2.3-0.6-2.4-2.9-2.4c-15.1,0-30.2,0-45.3,0c-1,0-2,0-3,0c-4.7-0.2-9.2-1.1-13.5-3c-0.7-0.3-1.3-0.6-2-0.9
					c-0.9-0.4-1.4,0-1.2,1c0,0.2,0.1,0.4,0.1,0.5c0.9,3.3,2.2,6.5,4,9.4c3.6,5.7,8.7,9.2,15.3,10.4c2.1,0.4,4.2,0.5,6.3,0.5
					C51.3,185.1,58.6,185,65.8,185z M391,167.1c-8,0-16,0-24,0c-0.4,0-0.8,0-1.2,0c-1,0.1-1.5,0.4-1.7,1.4c-0.1,0.4-0.2,0.8-0.2,1.2
					c-0.9,4.7-2.3,9.3-4.8,13.4c-0.1,0.2-0.2,0.4-0.3,0.6c-0.2,0.7,0,1.1,0.7,1.2c0.4,0.1,0.8,0,1.2,0c15.1,0,30.2,0,45.3,0
					c1.4,0,2.8-0.1,4.2-0.2c7-0.7,12.7-3.9,16.8-9.7c2.2-3.2,3.7-6.7,4.7-10.5c0.1-0.2,0.1-0.5,0.1-0.7c0-0.6-0.4-1-1-0.8
					c-0.4,0.1-0.7,0.3-1.1,0.5c-2.1,1-4.3,1.8-6.6,2.4c-3.3,0.8-6.6,1.2-10,1.2C405.7,167.1,398.3,167.1,391,167.1z M381.4,190.2
					c-8.9,0-17.8,0-26.7,0c-0.5,0-1,0-1.5,0c-1.3,0.2-2.7,0.7-3.1,2.6c-0.1,0.3-0.2,0.6-0.2,0.9c-1.2,4.3-2.8,8.3-5.2,12
					c-0.2,0.2-0.3,0.5-0.4,0.7c-0.3,0.7-0.1,1.2,0.7,1.3c0.5,0.1,0.9,0,1.4,0c14.3,0,28.5,0,42.8,0c1,0,2,0,3-0.1
					c4.2-0.2,8.2-1.1,12-2.9c6.6-3.1,11-8.3,13.9-14.8c0.1-0.2,0.2-0.4,0.2-0.6c0.1-0.7-0.3-1-0.9-1c-0.2,0-0.3,0.1-0.5,0.1
					c-3.5,1.1-7.1,1.5-10.7,1.5C397.7,190.2,389.6,190.2,381.4,190.2z M81,207.9c7.5,0,15.1,0,22.6,0c0.4,0,0.8,0,1.2,0
					c1.2-0.1,1.5-0.6,0.9-1.6c-2.7-4.1-4.5-8.7-5.7-13.4c-0.4-1.7-1.5-2.5-3.2-2.7c-0.5,0-1,0-1.5,0c-16.9,0-33.7,0-50.6,0
					c-1.5,0-2.9,0-4.4-0.1c-2.4-0.2-4.8-0.7-7.2-1.4c-0.4-0.1-0.8-0.2-1.1,0.1c-0.3,0.4-0.2,0.7,0,1.1c0.4,0.9,0.9,1.9,1.4,2.8
					c3.8,6.9,9.3,11.6,16.9,13.8c3.3,1,6.7,1.3,10.1,1.3C67.2,207.9,74.1,207.9,81,207.9z M276.6,164.9c-0.1-1.8-0.2-3.5-0.3-5.3
					c-0.1-1.2-0.2-2.4-0.4-3.5c-0.9-6.1-2.8-11.8-5.6-17.2c-1-2-1.4-2.2-3.6-1.6c-3.4,0.9-6.5,2.3-9.4,4.1c-1.5,1-1.5,1.5-0.1,2.5
					c1.5,1,2.8,2.2,4,3.6c8.4,10.3,3.4,26.1-9.4,29.5c-4.7,1.3-9.3,0.8-13.6-1.5c-1.5-0.8-2-0.6-2.4,1.2c0,0,0,0.1,0,0.1
					c-1.4,6.6-2.1,13.3-2.5,20c0,0.2,0,0.4,0,0.6c0.1,0.8,0.6,1.2,1.3,0.9c0.4-0.2,0.8-0.4,1.3-0.6c3.3-1.6,6.5-3.2,9.8-4.7
					c6.2-2.7,12.7-4.4,19.3-5.8c2.1-0.4,4.1-0.9,6.2-1.3c1-0.2,1.7-0.8,2-1.7c0.1-0.3,0.2-0.6,0.3-0.9
					C275.5,177.3,276.5,171.2,276.6,164.9z M173.9,164.9c0,4.5,0.5,9,1.6,13.5c0.5,1.9,1.1,3.8,1.7,5.7c0.3,1,1,1.6,2.1,1.7
					c0.8,0.1,1.6,0.2,2.3,0.4c7.1,1.2,14,2.9,20.6,5.9c4.2,1.9,8.3,4.1,12.5,6.1c0.4,0.2,0.7,0.4,1.1,0.5c0.6,0.2,1.1,0,1.2-0.7
					c0.1-0.3,0-0.6,0-1c-0.1-1.4-0.1-2.9-0.2-4.3c-0.4-5.3-1.1-10.6-2.2-15.8c-0.1-0.3-0.1-0.6-0.2-0.8c-0.3-0.8-0.8-1-1.6-0.7
					c-0.4,0.2-0.8,0.4-1.2,0.6c-7.2,3.4-16.1,1.7-21.4-4.1c-7.7-8.5-6.3-21.2,3-27.9c1.5-1.1,1.5-1.5-0.1-2.6
					c-2.9-1.8-5.9-3.2-9.2-4.1c-2.3-0.6-2.6-0.4-3.7,1.7C176,147.1,174,155.8,173.9,164.9z M115.1,193.2c-2.6,0-5.1,0-7.6,0
					c-0.3,0-0.5,0-0.8,0c-0.5,0.1-0.8,0.4-0.8,1c0,0.2,0.1,0.5,0.1,0.7c1.2,3.7,2.9,7.2,5.3,10.3c3.1,3.8,7.1,5.9,12.1,5.9
					c3.4,0,6.7,0.2,10.1,0.6c10.3,1.2,20.1,4,29.3,8.8c0.3,0.1,0.6,0.3,0.9,0.4c0.6,0.2,1-0.2,0.9-0.8c-0.1-0.4-0.2-0.8-0.3-1.1
					c-1.3-3.9-2.3-7.9-2.7-12.1c-0.2-1.5-0.8-2.7-2.1-3.4c-1.6-1-3.2-2-4.9-2.9c-4.6-2.3-9.5-3.6-14.5-4.7
					C131.8,194.3,123.5,193.6,115.1,193.2z M334.8,193.2c-5.9,0.3-11.8,0.7-17.7,1.6c-6.1,0.9-12,2.1-17.8,4.2
					c-3.2,1.2-6.3,2.7-9.1,4.7c-1.1,0.8-1.7,1.8-1.8,3.1c-0.5,4.3-1.5,8.5-2.9,12.6c-0.1,0.2-0.2,0.5-0.2,0.7
					c-0.1,0.8,0.3,1.1,1,0.9c0.3-0.1,0.6-0.3,0.9-0.4c7-3.6,14.4-6.1,22.1-7.7c5.9-1.2,11.8-1.7,17.8-1.8c3.9,0,7.1-1.4,9.9-4.1
					c3.5-3.4,5.5-7.7,7-12.2c0-0.1,0.1-0.3,0.1-0.4c0.1-0.6-0.2-1-0.8-1.1c-0.2-0.1-0.5,0-0.7,0C340,193.2,337.4,193.2,334.8,193.2z
					 M228,264c0.4,4.9,1.3,9.7,2.8,14.2c2.9,9,7.6,17,13.7,24.3c1.3,1.6,2.8,3.1,4.2,4.6c0.8,0.9,1.8,1.2,2.9,0.8
					c0.2-0.1,0.4-0.1,0.5-0.1c4.5-1.2,8.8-2.9,12.9-5.1c0.9-0.5,1.8-1,2.6-1.5c0.8-0.6,0.8-1.1,0-1.7c-0.2-0.2-0.5-0.3-0.7-0.5
					c-4-2.5-7.4-5.7-10.5-9.2c-4.4-5-8-10.6-11.1-16.5c-1.9-3.5-3.5-7.1-5-10.9c-0.5-1.3-1-1.5-2.4-1.3c-2.7,0.4-5.5,0.8-8.2,1.1
					C228.3,262.4,227.9,262.8,228,264z M222.5,264c-0.1-1.1-0.5-1.5-1.6-1.7c-0.1,0-0.3,0-0.4,0c-2.8-0.4-5.6-0.7-8.3-1.1
					c-1.5-0.2-2,0-2.6,1.4c-0.2,0.4-0.3,0.7-0.4,1.1c-3.2,7.8-7.1,15.1-12.2,21.9c-4,5.4-8.6,10.2-14.4,13.8
					c-0.2,0.1-0.4,0.3-0.6,0.5c-0.4,0.4-0.4,0.8,0,1.1c0.3,0.3,0.7,0.5,1,0.8c4.5,2.6,9.2,4.6,14.1,6c2.5,0.7,2.7,0.6,4.3-1.4
					c4.2-5.3,8-10.8,11.3-16.7c3.3-5.8,6.2-11.8,8-18.3C221.5,268.9,222,266.4,222.5,264z M275.3,297.4c0.7-0.3,1.4-0.5,2.1-0.8
					c3.3-1.6,6.3-3.8,9-6.2c0.2-0.2,0.4-0.3,0.5-0.5c0.4-0.5,0.4-0.8-0.1-1.2c-0.3-0.3-0.7-0.6-1.1-0.8c-4-2.4-7.7-5.2-11.1-8.4
					c-7.2-6.6-12.8-14.3-16.6-23.4c-0.8-2-1.1-2-3-1.1c-2.6,1.2-5.2,2.3-7.8,3.5c-0.4,0.2-0.9,0.3-1.3,0.5c-0.8,0.4-1,0.9-0.7,1.8
					c0.1,0.2,0.2,0.5,0.3,0.7c2.3,5.6,5,11,8.2,16.1c3.4,5.3,7.2,10.3,12.1,14.4c2.3,1.9,4.7,3.6,7.4,4.8
					C273.9,296.9,274.6,297.1,275.3,297.4z M174.6,297.3c0.5-0.1,0.9-0.2,1.2-0.3c1-0.4,1.9-0.9,2.8-1.4c4.6-2.6,8.4-6.1,11.8-10.1
					c6.1-7.3,10.5-15.6,14.1-24.3c0.6-1.4,0.4-1.9-1.1-2.5c-0.1,0-0.1-0.1-0.2-0.1c-3-1.1-5.9-2.4-8.7-3.8c-1.5-0.8-1.9-0.6-2.6,1
					c-0.1,0.1-0.1,0.3-0.2,0.4c-1.7,3.9-3.7,7.6-6.1,11.2c-5.7,8.3-12.9,15.1-21.5,20.4c-0.3,0.2-0.7,0.4-1,0.7
					c-0.7,0.5-0.7,1-0.1,1.6c0.4,0.4,0.8,0.7,1.2,1.1c2.6,2.2,5.3,4.1,8.3,5.5C173.4,296.9,174.1,297.1,174.6,297.3z M225.2,110.8
					c-8.6,0-16.6,2.1-24,6.3c-1.8,1-3.6,2.3-5.3,3.5c-0.3,0.2-0.6,0.6-0.6,0.9c0,0.5,0.6,0.6,1,0.6c0.2,0,0.4,0,0.6,0
					c1.7,0.1,3.4,0.1,5.2,0.3c3.7,0.3,7.3,1.1,10.7,2.7c1.8,0.9,3.5,1.9,5.2,2.8c4.5,2.5,9.1,2.6,13.7,0.2c1.1-0.5,2.1-1.1,3.1-1.7
					c2.9-1.6,6-2.8,9.3-3.4c2.8-0.5,5.6-0.8,8.5-0.8c0.5,0,1.1,0,1.6-0.1c0.3-0.1,0.7-0.3,0.8-0.5c0.1-0.2-0.2-0.6-0.3-0.8
					c-0.2-0.3-0.5-0.5-0.8-0.7C245.3,113.9,235.7,110.8,225.2,110.8z M223.5,311.6c5.9-0.1,11.7-0.8,17.4-2c0.3-0.1,0.6-0.1,0.8-0.2
					c0.8-0.3,0.9-0.8,0.4-1.5c-0.2-0.2-0.4-0.4-0.5-0.7c-3.2-3.7-6.1-7.6-8.6-11.8c-3.1-5.1-5.6-10.5-7.4-16.1
					c-0.2-0.5-0.2-1.4-1-1.4c-0.7,0-0.8,0.8-1,1.3c-0.5,1.2-1,2.5-1.6,3.8c-3.4,7.7-7.8,14.9-12.8,21.7c-0.8,1.2-1.7,2.3-2.6,3.5
					c-0.6,0.8-0.4,1.4,0.6,1.7c0.4,0.1,0.8,0.2,1.1,0.3C213.4,311.3,218.4,311.7,223.5,311.6z M227.5,224.7c0,4.6,0,9.2,0,13.8
					c0,0.3,0,0.6,0,1c0.1,1.1,0.5,1.5,1.5,1.5c0.5,0,1.1-0.1,1.6-0.1c7.1-1,13.6-3.6,19.4-7.8c0.4-0.3,0.8-0.5,1.1-0.9
					c0.9-0.8,0.9-1.3,0.2-2.2c-0.6-0.8-1.2-1.5-1.9-2.2c-5.6-6.5-11.2-13-16.7-19.4c-0.3-0.4-0.7-0.7-1-1.1
					c-0.3-0.3-0.7-0.4-1.2-0.3c-1.8,0.4-3,2-3,3.8C227.5,215.4,227.5,220,227.5,224.7z M222.3,224.7c0-1.7,0-3.3,0-5
					c0-3.2,0-6.4,0-9.6c0-0.9-0.2-1.6-0.9-2.2c-1.8-1.5-2.6-1.4-4.1,0.3c-5.8,6.7-11.6,13.5-17.4,20.2c-0.5,0.6-1,1.1-1.4,1.7
					c-0.6,0.8-0.5,1.2,0.2,1.9c0.3,0.3,0.7,0.6,1.1,0.9c5.8,4.2,12.4,6.8,19.5,7.8c0.6,0.1,1.1,0.1,1.7,0.1c0.8,0,1.2-0.4,1.3-1.3
					c0-0.4,0-0.7,0-1.1C222.3,234,222.3,229.3,222.3,224.7z M208.5,201.1c-0.5,0.1-0.9,0.1-1.3,0.2c-7.6,1.4-15.1,2.9-22.7,4.3
					c-2,0.4-2.2,0.8-1.7,2.7c1.8,6.6,4.9,12.5,9.3,17.7c0.2,0.3,0.5,0.5,0.8,0.8c0.6,0.5,1.1,0.5,1.6,0c0.3-0.3,0.7-0.7,1-1
					c4.8-5.6,9.6-11.2,14.4-16.7c1.1-1.3,2.3-2.7,3.4-4c0.6-0.8,0.5-1.3-0.3-1.8c-1.1-0.7-2.3-1.2-3.4-1.8
					C209.3,201.2,208.9,201.2,208.5,201.1z M241.6,201.1c-0.2,0-0.3,0-0.4,0c-1.7,0.3-3.1,1.2-4.5,2.2c-0.5,0.3-0.5,0.8-0.1,1.4
					c0.3,0.4,0.6,0.9,1,1.3c5.8,6.7,11.5,13.4,17.3,20.1c0.2,0.2,0.4,0.5,0.7,0.7c0.6,0.5,1,0.5,1.5,0c0.4-0.4,0.8-0.8,1.1-1.2
					c4.2-5.1,7.2-10.9,8.9-17.3c0.1-0.3,0.2-0.6,0.2-0.9c0.1-0.7-0.2-1.2-0.9-1.4c-0.4-0.1-0.8-0.2-1.2-0.3
					c-7.5-1.4-15-2.8-22.4-4.3C242.3,201.2,241.9,201.1,241.6,201.1z M245.6,172.5c9.3,0,15.6-7.3,14.2-15.4
					c-0.8-4.6-3.3-7.9-7.5-9.9c-1.2-0.6-1.8-0.5-2.7,0.5c-0.7,0.8-1.4,1.6-2.1,2.4c-0.5,0.6-0.9,1.2-1.4,1.8
					c-0.5,0.8-0.3,1.2,0.6,1.5c0.3,0.1,0.6,0.1,0.8,0.2c2.5,0.7,4.3,2.7,4.5,5.2c0.3,2.6-1.1,5-3.4,6.1c-2.3,1.1-4.9,0.6-6.8-1.1
					c-0.3-0.2-0.5-0.5-0.8-0.7c-0.5-0.4-0.8-0.3-1.2,0.2c-0.1,0.2-0.3,0.4-0.3,0.7c-0.4,1.1-0.9,2.3-1.3,3.4
					c-0.5,1.6-0.3,2.2,1.1,3.1C241.6,171.7,244,172.5,245.6,172.5z M190.4,158.2c0,6.9,3.7,12,9.3,13.7c4,1.2,7.7,0.7,11.2-1.6
					c1.3-0.8,1.5-1.4,1-2.8c-0.5-1.4-1-2.7-1.5-4c-0.1-0.3-0.3-0.6-0.5-0.8c-0.4-0.4-0.7-0.5-1.1-0.1c-0.4,0.4-0.7,0.8-1.1,1.2
					c-2.5,2.4-6.4,2.3-8.7-0.4c-2.3-2.6-1.9-6.6,0.9-8.7c1-0.8,2.2-1.1,3.5-1.3c1-0.1,1.3-0.7,0.7-1.4c-1.2-1.5-2.4-3-3.7-4.5
					c-0.6-0.7-1.4-0.8-2.2-0.4c-0.3,0.1-0.5,0.2-0.8,0.4C192.9,150.1,190.6,154,190.4,158.2z M181.2,196.1c0.1,1,0.1,2.1,0.2,3.2
					c0.1,1.1,0.6,1.4,1.7,1.3c0.2,0,0.4-0.1,0.5-0.1c4.8-0.9,9.7-1.8,14.5-2.8c0.3-0.1,0.6-0.1,0.9-0.2c0.6-0.3,0.7-0.8,0.1-1.1
					c-0.3-0.2-0.7-0.4-1.1-0.5c-3.8-1.5-7.6-2.6-11.5-3.5c-1.1-0.2-2.2-0.5-3.3-0.7c-1.3-0.2-1.7,0.2-1.9,1.4
					C181.3,194.1,181.2,195.1,181.2,196.1z M268.5,196.4c0,0,0.1,0,0.1,0c0-0.8-0.1-1.7-0.1-2.5c0-0.1,0-0.3,0-0.4
					c-0.1-1.2-0.6-1.6-1.8-1.3c-1.1,0.2-2.2,0.5-3.3,0.7c-3.9,0.9-7.8,1.9-11.5,3.3c-0.5,0.2-1.1,0.3-1,0.9c0,0.7,0.7,0.6,1.2,0.7
					c1.8,0.4,3.5,0.7,5.3,1c3.1,0.6,6.1,1.2,9.2,1.7c1.4,0.3,1.9-0.2,2-1.5C268.6,198.1,268.5,197.2,268.5,196.4z"/>
			</g>
		</g>
	</g>
	<g id="PTtfJ8_1_">
		<g>
			<path fill-rule="evenodd" clip-rule="evenodd" fill="#D5C8A8" d="M131.4,53.1c-0.1-0.3-0.2-0.7-0.3-1c-2.1-4.7-4.2-9.5-6.2-14.2
				c-0.6-1.3-0.5-1.4,0.5-2.4c0.7-0.6,1.4-1.2,2.2-1.8c0.9-0.7,1.1-0.7,2-0.1c4.3,2.8,8.7,5.6,13,8.4c0.4,0.2,0.8,0.4,1.2,0.6
				c0.1-0.1,0.1-0.1,0.2-0.2c-0.1-0.4-0.2-0.8-0.4-1.1c-2-4.5-3.9-8.9-5.9-13.4c-0.9-2.1-0.9-2.1,0.8-3.5c0.4-0.3,0.7-0.6,1.1-0.9
				c0.8-0.6,1.1-0.5,1.6,0.4c1,2.2,2,4.5,2.9,6.7c2.5,5.7,5,11.3,7.4,17c0.4,1,0.4,1.2-0.4,1.9c-0.5,0.5-1.1,0.9-1.6,1.4
				c-0.8,0.7-1.1,0.7-2,0.1c-3.3-2.1-6.6-4.2-9.9-6.4c-1.7-1.1-3.4-2.2-5.1-3.3c-0.2-0.2-0.5-0.3-0.8-0.4c-0.1,0-0.1,0.1-0.2,0.1
				c0.1,0.4,0.2,0.8,0.4,1.1c2.1,4.9,4.3,9.7,6.4,14.5c0.3,0.6,0.5,1.2,0.8,1.8c0.2,0.5,0.2,1-0.3,1.4c-0.7,0.6-1.5,1.3-2.2,1.9
				c-0.5,0.5-1.1,0.3-1.6-0.1c-2.4-1.5-4.7-3-7.1-4.6c-4.9-3.1-9.7-6.3-14.6-9.4c-0.2-0.1-0.4-0.2-0.5-0.4c-0.4-0.3-0.4-0.7,0-1
				c0.9-0.8,1.7-1.5,2.6-2.2c0.5-0.4,1-0.2,1.5,0.1c2.3,1.5,4.6,3,6.9,4.5c2.2,1.4,4.4,2.8,6.6,4.2c0.2,0.2,0.5,0.3,0.8,0.4
				C131.2,53.2,131.3,53.2,131.4,53.1z"/>
			<path fill-rule="evenodd" clip-rule="evenodd" fill="#D5C8A8" d="M263.1,11c0,4.5-2.2,7.5-6.3,9.2c-1.4,0.6-1.5,0.6-0.6,1.9
				c1.6,2.4,3.2,4.8,4.8,7.2c0.2,0.3,0.4,0.5,0.5,0.8c0.1,0.2,0.1,0.5,0,0.7c-0.1,0.1-0.4,0.2-0.6,0.2c-1.5-0.3-3.1-0.5-4.6-0.9
				c-0.4-0.1-0.9-0.5-1.1-0.9c-1.4-2-2.7-4.1-4.1-6.1c-0.6-0.9-0.8-1-1.8-0.7c-1.4,0.3-2.8,0.7-4.2,1c-0.7,0.2-1.1,0.6-1.2,1.3
				c-0.1,0.7-0.2,1.4-0.4,2.1c-0.2,0.7-0.5,0.9-1.2,0.8c-0.8-0.1-1.6-0.3-2.4-0.4c-1.1-0.2-1.3-0.5-1.1-1.6c1-5.5,2.1-11,3.1-16.5
				c0.5-2.5,0.9-5.1,1.4-7.6c0.2-1.2,0.5-1.4,1.6-1.2c3.6,0.7,7.3,1.3,10.9,2.1c3.9,0.8,6.6,3.6,7.1,7.3
				C263.1,10.1,263.1,10.5,263.1,11z M258.3,11.3c0-2.4-1.1-3.8-3.3-4.3c-2.2-0.5-4.4-0.8-6.5-1.2c-0.7-0.1-0.9,0-1.1,0.8
				c-0.7,3.5-1.3,7-2,10.6c-0.2,0.9,0.1,1.1,0.9,0.9c2-0.5,3.9-0.9,5.9-1.4c1.1-0.3,2.3-0.7,3.3-1.2
				C257.4,14.6,258.3,13.1,258.3,11.3z"/>
			<path fill-rule="evenodd" clip-rule="evenodd" fill="#D5C8A8" d="M115.3,85.2c0,7.8-5,13.7-11.7,14.7c-2.1,0.3-4.1,0.1-6-0.7
				c-1.7-0.7-3.4-1.5-5-2.3c-5.9-3.1-8.3-10.4-5.6-16.7c2.3-5.4,7.4-8.7,13.1-8.4c1.4,0.1,2.8,0.5,4.1,1c1.3,0.5,2.6,1.1,3.8,1.8
				C112.9,76.9,115.1,80.9,115.3,85.2z M110.5,85.8c-0.1-2.9-1.4-5.4-4.5-6.9c-1.3-0.6-2.5-1.3-3.8-1.8c-0.9-0.3-1.9-0.6-2.8-0.6
				c-3.5-0.1-6.8,2.3-8.1,5.9c-1.5,4.1,0.1,8.5,3.9,10.4c1.2,0.6,2.4,1.1,3.6,1.7c1.2,0.5,2.4,0.8,3.6,0.7
				C106.9,94.8,110.4,91,110.5,85.8z"/>
			<path fill-rule="evenodd" clip-rule="evenodd" fill="#D5C8A8" d="M320.4,64.6c-4.5,0-7.3-1.3-9.7-3.4c-1.8-1.6-3.5-3.4-5.3-5.1
				c-0.6-0.6-1.3-1.2-1.9-1.9c-0.6-0.6-0.6-1,0-1.6c6-6,12-12.1,18.1-18.1c0.6-0.6,0.9-0.6,1.5,0c2.5,2.4,5,4.8,7.4,7.4
				c4.2,4.4,4.2,11.7,0.1,16.2c-1.3,1.4-2.6,2.7-4,3.9C324.4,63.8,321.9,64.6,320.4,64.6z M328.7,50.1c0-2-0.7-3.7-2.1-5.2
				c-1.2-1.2-2.4-2.4-3.5-3.5c-0.7-0.7-0.9-0.7-1.6,0c-2.9,2.9-5.7,5.8-8.6,8.6c-0.9,0.9-1.7,1.7-2.6,2.6c-0.6,0.6-0.6,0.8,0,1.4
				c0.9,0.9,1.8,1.8,2.7,2.7c0.9,0.7,1.8,1.5,2.8,2c2.9,1.7,6,1.2,8.4-1.1c0.9-0.8,1.7-1.7,2.6-2.6C328,53.7,328.6,52,328.7,50.1z"
				/>
			<path fill-rule="evenodd" clip-rule="evenodd" fill="#D5C8A8" d="M340.1,102.2c-0.2-0.3-0.6-0.5-0.8-0.9
				c-0.8-1.5-1.7-3.1-2.5-4.7c-1.7-3.2-3.4-6.5-5.1-9.7c-0.5-1-0.4-1.3,0.5-1.8c7.4-3.9,14.8-7.8,22.2-11.7c1-0.5,1.3-0.4,1.8,0.6
				c2.5,4.8,5,9.5,7.5,14.3c0.6,1,0.5,1.3-0.6,1.9c-0.7,0.4-1.4,0.7-2,1.1c-0.8,0.4-1.1,0.3-1.6-0.5c-1.7-3.3-3.5-6.6-5.2-9.9
				c-0.1-0.2-0.2-0.4-0.3-0.6c-0.4-0.7-0.6-0.8-1.4-0.4c-1.1,0.6-2.1,1.1-3.2,1.7c-0.9,0.5-1,0.7-0.5,1.7c1.3,2.4,2.6,4.9,3.9,7.4
				c0.6,1.1,0.5,1.4-0.6,1.9c-0.6,0.3-1.3,0.7-1.9,1c-0.9,0.4-1.2,0.3-1.7-0.6c-1.2-2.2-2.3-4.4-3.5-6.7c-0.2-0.4-0.4-0.8-0.7-1.2
				c-0.2-0.4-0.6-0.6-1.1-0.3c-1.7,0.9-3.4,1.8-5.1,2.7c-0.6,0.3-0.5,0.8-0.2,1.3c1.1,2.1,2.2,4.2,3.3,6.4c0.7,1.3,1.4,2.7,2.1,4
				c0.5,0.9,0.4,1.2-0.6,1.7c-0.7,0.4-1.5,0.8-2.2,1.1C340.6,102,340.4,102.1,340.1,102.2z"/>
			<path fill-rule="evenodd" clip-rule="evenodd" fill="#D5C8A8" d="M177.3,35c-0.7,0-0.8-0.4-1-0.9c-0.5-1.7-1.1-3.4-1.6-5.1
				c-1.9-6.2-3.9-12.3-5.8-18.5c-0.4-1.3-0.3-1.5,1-1.9c0.7-0.2,1.3-0.4,2-0.6c1-0.3,1.2-0.1,1.6,0.8c0.8,2.6,1.7,5.2,2.5,7.9
				c1.2,3.8,2.4,7.5,3.6,11.3c0.3,1,0.5,1.1,1.5,0.8c2.2-0.7,4.3-1.4,6.5-2c1.1-0.3,1.3-0.2,1.7,0.9c0.2,0.7,0.5,1.5,0.7,2.2
				c0.3,0.9,0.1,1.2-0.8,1.5c-2.8,0.9-5.5,1.7-8.3,2.6c-1,0.3-2,0.6-3,0.9C177.6,34.9,177.4,34.9,177.3,35z"/>
			<path fill-rule="evenodd" clip-rule="evenodd" fill="#D5C8A8" d="M284.6,41.5c-0.4-0.1-0.6-0.2-0.8-0.3c-0.8-0.4-1.5-0.8-2.3-1.2
				c-0.8-0.4-0.9-0.8-0.5-1.6c2.3-4.5,4.6-9.1,7-13.6c1.4-2.7,2.8-5.4,4.2-8.2c0.6-1.1,0.8-1.2,1.9-0.6c0.7,0.3,1.3,0.7,2,1
				c0.8,0.4,0.9,0.8,0.5,1.6c-2,3.9-4,7.9-6,11.8c-1.7,3.3-3.4,6.7-5.2,10C285.2,40.9,284.9,41.2,284.6,41.5z"/>
		</g>
	</g>
	<g id="_x38_0dGt3_1_">
		<g>
			<path fill-rule="evenodd" clip-rule="evenodd" fill="#D5C8A8" d="M224.1,75c0,1.3-0.3,2.5-1.1,3.5c-1.7,2.2-5,2.3-6.7,0.1
				c-1.6-2-1.5-5.4,0.1-7.3c1.8-2.2,5.2-2,6.8,0.4C223.8,72.8,224.1,73.9,224.1,75z M221.7,75c0-0.8-0.2-1.5-0.6-2.2
				c-0.7-1.2-2.2-1.1-2.9,0c-0.8,1.1-0.8,3.3,0,4.4c0.8,1.2,2.3,1.2,3-0.1C221.5,76.6,221.7,75.9,221.7,75z"/>
			<path fill-rule="evenodd" clip-rule="evenodd" fill="#D5C8A8" d="M110.9,250c0-0.9,0-1.8,0-2.6c0-0.6,0.2-0.9,0.8-0.9
				c1.5,0,1.5,0,1.5,1.5c0,1.5,0,3,0,4.4c0,1.1,0.5,1.8,1.4,2.1c1.4,0.4,2.6-0.3,2.8-1.8c0.1-1,0-1.9,0.1-2.9c0-0.6,0-1.2,0-1.8
				c0-1.6,0.2-1.7,1.7-1.5c0.2,0,0.6,0.4,0.6,0.6c0,2,0.1,4-0.1,6c-0.2,2.1-1.6,3.4-3.7,3.6c-0.3,0-0.6,0-0.9,0
				c-2.5-0.1-4-1.5-4.1-4C110.8,251.9,110.9,250.9,110.9,250C110.9,250,110.9,250,110.9,250z"/>
			<path fill-rule="evenodd" clip-rule="evenodd" fill="#D5C8A8" d="M248.1,72.7c0-0.7,0.1-1.3,0.1-2c0-0.5,0.3-0.7,0.7-0.7
				c1.6,0,3.2,0,4.9,0c0.8,0,0.7,0.5,0.7,1c0,0.6,0,1-0.8,1c0,0-1.7,0-2.8,0c-0.7,0-0.7,0.5-0.7,1c0,0.6,0.4,0.5,0.8,0.5
				c0.3,0,0.6,0,0.8,0c1.9,0.1,3,1.1,3.2,2.8c0.2,1.9-0.8,3.3-2.5,3.8c-1.6,0.4-3.1,0.2-4.4-0.8c-0.7-0.5-0.7-0.7-0.2-1.3
				c0.1-0.2,0.3-0.3,0.4-0.5c0.3-0.4,0.6-0.3,1-0.1c0.7,0.3,1.4,0.6,2.1,0.6c0.8,0.1,1.3-0.5,1.4-1.2c0-0.7-0.5-1.2-1.3-1.3
				c-0.5,0-1,0-1.5,0.1c-1.1,0.2-1.9-0.4-1.9-1.5C248,73.7,248.1,73.2,248.1,72.7L248.1,72.7z"/>
			<path fill-rule="evenodd" clip-rule="evenodd" fill="#D5C8A8" d="M202,78.1c0.8,0,1.7,0,2.5,0c1,0,1.6,0.8,1.1,1.7
				c-0.1,0.2-0.4,0.3-0.6,0.3c-2.1,0-4.2,0-6.3,0c-0.4,0-0.6-0.2-0.6-0.6c-0.1-0.8,0.1-1.4,0.8-1.9c1-0.8,2-1.6,3-2.5
				c0.4-0.3,0.8-0.8,1-1.2c0.3-0.5,0.3-1.1-0.1-1.6c-0.4-0.5-1-0.5-1.6-0.2c-0.3,0.2-0.7,0.4-0.9,0.7c-0.4,0.4-0.6,0.3-1,0
				c-1.1-0.8-1.1-1.1-0.1-2c1.2-1.1,3.4-1.4,4.9-0.6c1.7,1,2.1,3.5,0.6,5.1c-0.6,0.7-1.5,1.3-2.2,1.9c-0.2,0.2-0.4,0.4-0.6,0.5
				C201.9,77.9,202,78,202,78.1z"/>
			<path fill-rule="evenodd" clip-rule="evenodd" fill="#D5C8A8" d="M129.9,251.6c0-1.4,0-2.8,0-4.2c0-0.6,0.2-1,0.9-0.9
				c0.1,0,0.1,0,0.2,0c1.2,0,1.2,0,1.2,1.2c0,2,0,4,0,6c0,0.6,0.2,0.8,0.8,0.8c1.1,0,2.2,0,3.3,0c0.6,0,0.9,0.2,0.9,0.9
				c0,0.2,0,0.3,0,0.5c0,0.6-0.2,0.8-0.8,0.8c-1.9,0-3.8,0-5.8,0c-0.6,0-0.8-0.3-0.8-0.8C129.9,254.4,129.9,253,129.9,251.6z"/>
			<path fill-rule="evenodd" clip-rule="evenodd" fill="#D5C8A8" d="M100.9,250.4c0,0.9,0,1.9,0,2.8c0,1.5-0.5,2.7-2,3.3
				c-1.6,0.6-3.1,0.4-4.5-0.7c-0.4-0.3-0.4-0.7-0.1-1.1c0.2-0.2,0.3-0.3,0.5-0.5c0.3-0.4,0.7-0.5,1.1-0.1c0.2,0.2,0.5,0.3,0.8,0.4
				c0.9,0.3,1.6-0.1,1.7-1.1c0.1-0.6,0-1.3,0.1-1.9c0-1.4,0-2.7,0-4.1c0-0.6,0.2-0.9,0.8-0.9c1.6,0,1.6,0,1.6,1.5
				C100.9,248.8,100.9,249.6,100.9,250.4C100.9,250.4,100.9,250.4,100.9,250.4z"/>
			<path fill-rule="evenodd" clip-rule="evenodd" fill="#D5C8A8" d="M237.6,75c0,1.4,0,2.9,0,4.3c0,0.6-0.2,0.9-0.9,0.9
				c-1.5,0-1.5,0-1.5-1.4c0-1.9,0-3.7,0-5.6c0-0.8-0.1-0.9-0.8-0.7c-0.7,0.2-1-0.1-1.1-0.7c-0.2-0.9-0.2-1.1,0.6-1.3
				c0.9-0.2,1.9-0.5,2.8-0.6c0.6-0.1,0.9,0.2,0.9,0.8C237.5,72.1,237.6,73.6,237.6,75z"/>
			<path fill-rule="evenodd" clip-rule="evenodd" fill="#D5C8A8" d="M316.6,251.5c0,1.4,0,2.8,0,4.2c0,0.6-0.2,1-0.9,0.9
				c-0.1,0-0.1,0-0.2,0c-1.2,0-1.3,0-1.3-1.2c0-1.9,0-3.7,0-5.6c0-0.9-0.1-1-0.9-0.8c-0.6,0.2-0.9-0.1-1-0.7
				c-0.1-0.5-0.4-1.1,0.5-1.3c1-0.2,2-0.5,3-0.7c0.6-0.1,0.8,0.2,0.8,0.8C316.6,248.6,316.6,250.1,316.6,251.5z"/>
			<path fill-rule="evenodd" clip-rule="evenodd" fill="#D5C8A8" d="M330.6,251.5c0,1.4,0,2.9,0,4.3c0,0.6-0.2,0.9-0.9,0.9
				c-1.5,0-1.5,0-1.5-1.4c0-1.8,0-3.7,0-5.5c0-0.9-0.1-1-0.9-0.7c-0.7,0.2-0.9-0.1-1.1-0.7c-0.2-0.9-0.2-1.1,0.5-1.3
				c0.9-0.2,1.8-0.5,2.8-0.6c0.9-0.1,1,0.1,1,0.9C330.6,248.7,330.6,250.1,330.6,251.5z"/>
			<path fill-rule="evenodd" clip-rule="evenodd" fill="#D5C8A8" d="M355.9,249c0,0.8,0,1.5,0,2.3c0,0.6-0.4,0.7-0.9,0.7
				c-0.5,0-0.9-0.1-0.9-0.7c0-0.2,0-0.4,0-0.6c0-0.9-0.1-1-1-1c-0.9,0-0.9,0-0.9,1.1c0,1-0.2,1.2-1.2,1.1c-0.2,0-0.6-0.4-0.6-0.6
				c0-1.6,0-3.1,0-4.7c0-0.7,0.5-0.6,0.9-0.6c0.5,0,0.9,0.1,0.8,0.7c0,0.2,0,0.4,0,0.6c0,0.9,0.1,1,1,1c0.8,0,0.9,0,0.9-1.1
				c0-0.5-0.1-1.1,0.7-1.1c0.9,0,1,0.1,1,1C355.9,247.6,355.9,248.3,355.9,249L355.9,249z"/>
			<path fill-rule="evenodd" clip-rule="evenodd" fill="#D5C8A8" d="M342.7,246c0.6,0,1.3,0,1.9,0c0.5,0,0.7,0.3,0.7,0.8
				c0,0.4-0.1,0.8-0.6,0.8c-1.1,0.1-1.1,0.1-1.1,1.3c0,0.8,0,1.6,0,2.4c0,0.6-0.3,0.7-0.8,0.7c-0.5,0-0.9,0-0.9-0.7
				c0-0.9,0-1.9,0-2.8c0-0.7-0.2-1-0.9-0.9c-0.6,0.1-0.9-0.2-0.8-0.9c0-0.5,0.2-0.7,0.7-0.7C341.4,246,342,246,342.7,246
				C342.7,246,342.7,246,342.7,246z"/>
		</g>
	</g>
</g>
</svg>
