<?xml version="1.0" encoding="utf-8"?>
<!-- Generator: Adobe Illustrator 18.1.1, SVG Export Plug-In . SVG Version: 6.00 Build 0)  -->
<!DOCTYPE svg PUBLIC "-//W3C//DTD SVG 1.1//EN" "http://www.w3.org/Graphics/SVG/1.1/DTD/svg11.dtd">
<svg version="1.1" id="Layer_1" xmlns="http://www.w3.org/2000/svg" xmlns:xlink="http://www.w3.org/1999/xlink" x="0px" y="0px"
	 width="34px" height="34px" viewBox="-169.5 103.5 34 34" enable-background="new -169.5 103.5 34 34" xml:space="preserve">
<path fill="#D4C7A6" d="M-152.5,103.5c-9.4,0-17,7.6-17,17s7.6,17,17,17s17-7.6,17-17S-143.1,103.5-152.5,103.5z M-140.7,115.1
	c-0.5,0.5-0.9,1-1.4,1.4c-0.8,0.5-1,1.1-1,2c0,0.5-0.1,1.1-0.3,1.6c-2,10.1-12.3,13.1-19.4,9.1c-0.1-0.1-0.3-0.1-0.4-0.4
	c2.5,0.1,4.7-0.4,6.5-1.9c-2.5-0.6-3.8-1.6-4-3.3c0.5,0,1.1,0,1.6,0c-2.3-1.1-3.5-2.8-3.3-4.5c0.6,0.1,1.1,0.4,1.9,0.5
	c-2-2.1-2.5-4.5-1.3-6.2c2.5,2.9,5.5,4.5,9.3,4.8c0-0.3,0-0.4,0-0.5c-0.1-2,0.6-3.7,2.5-4.5c1.9-0.9,3.7-0.6,5.3,0.6
	c0.1,0.1,0.5,0.3,0.6,0.1c0.8-0.3,1.6-0.5,2.4-0.9c-0.3,1-0.9,1.6-1.5,2.4c0.8-0.3,1.5-0.5,2.3-0.8
	C-140.7,115-140.7,115.1-140.7,115.1z"/>
</svg>
