<?xml version="1.0" encoding="utf-8"?>
<!-- Generator: Adobe Illustrator 18.1.1, SVG Export Plug-In . SVG Version: 6.00 Build 0)  -->
<!DOCTYPE svg PUBLIC "-//W3C//DTD SVG 1.1//EN" "http://www.w3.org/Graphics/SVG/1.1/DTD/svg11.dtd">
<svg version="1.1" id="Isolation_Mode" xmlns="http://www.w3.org/2000/svg" xmlns:xlink="http://www.w3.org/1999/xlink" x="0px"
	 y="0px" width="480px" height="26px" viewBox="58.2 1106.3 480 26" enable-background="new 58.2 1106.3 480 26"
	 xml:space="preserve">
<path fill="#D5C8A8" d="M400.2,1132c-1,0-1-0.1-1.1-1c-0.1-0.7-0.1-1.4-0.3-2c-0.3-1.1-2.3-1.6-3.2-0.8c-0.4,0.4-0.8,0.8-1.2,1.2
	c-0.5,0.5-0.9,0.5-1.4,0c-0.7-0.7-0.7-0.8-0.2-1.7c0.5-0.8,0.9-1.7,0.6-2.6c-0.5-1.4-1.2-1.6-2.6-1.4c-0.3,0-0.6,0.1-0.9,0.2
	c-0.6,0.2-0.8-0.1-1.1-0.6c-0.5-1-0.2-1.5,0.8-1.9c0.5-0.2,1.1-0.5,1.5-0.9c0.8-0.7,0.7-2.5-0.2-3.1c-0.4-0.3-0.8-0.5-1.3-0.7
	c-0.7-0.4-0.8-0.6-0.6-1.4c0.3-1,0.6-1.2,1.6-0.9c0.6,0.1,1.2,0.2,1.8,0.2c0.8,0,1.5-0.9,1.7-1.7c0.1-0.8-0.1-1.6-0.5-2.3
	c-0.5-1,0-2.1,1.1-2.2c0.3,0,0.6,0.2,0.9,0.5c0.4,0.4,0.8,0.8,1.2,1.2c0.9,1,2.5,0.5,3-0.8c0.2-0.6,0.4-1.3,0.5-1.9
	c0.1-0.5,0.4-0.7,0.9-0.7c0.2,0,0.4,0,0.7,0c0.9,0.1,1.1,0.3,1,1.2c-0.2,1.2,0.3,2.2,1.3,2.9c0.5,0.4,1.3,0.4,1.8-0.1
	c0.6-0.5,1.1-1,1.6-1.4c0.5-0.5,0.8-0.4,1.3,0c0.7,0.6,0.8,0.8,0.5,1.5c-0.2,0.4-0.5,0.8-0.7,1.2c-0.5,0.7-0.7,1.5-0.2,2.3
	c0.5,0.8,1.2,1.3,2.2,1.1c0.6-0.1,1.2-0.2,1.8-0.3c0.1,0,0.2,0,0.4,0c0.4,0.1,0.8,0.8,0.8,1.4s-0.2,0.8-0.7,1
	c-0.4,0.1-0.8,0.2-1.1,0.4c-0.9,0.4-1.6,0.9-1.7,2c0,1,0.6,1.6,1.4,2.1c0.3,0.2,0.7,0.4,1,0.6c0.8,0.5,0.7,1.9-0.1,2.4
	c-0.2,0.1-0.5,0.1-0.8,0c-0.3-0.1-0.5-0.2-0.8-0.3c-0.9-0.4-1.8-0.2-2.5,0.4c-0.8,0.7-0.9,1.6-0.6,2.5c0.2,0.6,0.5,1.1,0.7,1.7
	c0.1,0.2,0,0.6-0.1,0.7c-0.3,0.3-0.7,0.5-1.1,0.6c-0.1,0-0.4,0-0.5-0.1c-0.3-0.3-0.6-0.6-0.8-0.9c-0.6-0.7-1.2-1.2-2.2-1.1
	c-1.2,0.1-2,1.1-2.1,2.3c0,0.2,0,0.3,0,0.5c0,0.7-0.3,0.9-1,1C400.4,1132,400.3,1132,400.2,1132z M400.7,1114.9
	c-2.4,0-4.4,1.7-4.4,4.5c0,2.2,1.9,4.2,4.1,4.3c2.8,0.1,4.5-1.8,4.6-4.4C405.1,1116.4,402.8,1115,400.7,1114.9z"/>
<path fill="#D5C8A8" d="M290.4,1132c-1,0-1-0.1-1.1-1c-0.1-0.7-0.1-1.4-0.3-2c-0.3-1.1-2.3-1.6-3.2-0.8c-0.4,0.4-0.8,0.8-1.2,1.2
	c-0.5,0.5-0.9,0.5-1.4,0c-0.7-0.7-0.7-0.8-0.2-1.7c0.5-0.8,0.9-1.7,0.6-2.6c-0.5-1.4-1.2-1.6-2.6-1.4c-0.3,0-0.6,0.1-0.9,0.2
	c-0.6,0.2-0.8-0.1-1.1-0.6c-0.5-1-0.2-1.5,0.8-1.9c0.5-0.2,1.1-0.5,1.5-0.9c0.8-0.7,0.7-2.5-0.2-3.1c-0.4-0.3-0.8-0.5-1.3-0.7
	c-0.7-0.4-0.8-0.6-0.6-1.4c0.3-1,0.6-1.2,1.6-0.9c0.6,0.1,1.2,0.2,1.8,0.2c0.8,0,1.5-0.9,1.7-1.7c0.1-0.8-0.1-1.6-0.5-2.3
	c-0.5-1,0-2.1,1.1-2.2c0.3,0,0.6,0.2,0.9,0.5c0.4,0.4,0.8,0.8,1.2,1.2c0.9,1,2.5,0.5,3-0.8c0.2-0.6,0.4-1.3,0.5-1.9
	c0.1-0.5,0.4-0.7,0.9-0.7c0.2,0,0.4,0,0.7,0c0.9,0.1,1.1,0.3,1,1.2c-0.2,1.2,0.3,2.2,1.3,2.9c0.5,0.4,1.3,0.4,1.8-0.1
	c0.6-0.5,1.1-1,1.6-1.4c0.5-0.5,0.8-0.4,1.3,0c0.7,0.6,0.8,0.8,0.5,1.5c-0.2,0.4-0.5,0.8-0.7,1.2c-0.5,0.7-0.7,1.5-0.2,2.3
	c0.5,0.8,1.2,1.3,2.2,1.1c0.6-0.1,1.2-0.2,1.8-0.3c0.1,0,0.2,0,0.4,0c0.4,0.1,0.8,0.8,0.8,1.4s-0.2,0.8-0.7,1
	c-0.4,0.1-0.8,0.2-1.1,0.4c-0.9,0.4-1.6,0.9-1.7,2c0,1,0.6,1.6,1.4,2.1c0.3,0.2,0.7,0.4,1,0.6c0.8,0.5,0.7,1.9-0.1,2.4
	c-0.2,0.1-0.5,0.1-0.8,0c-0.3-0.1-0.5-0.2-0.8-0.3c-0.9-0.4-1.8-0.2-2.5,0.4c-0.8,0.7-0.9,1.6-0.6,2.5c0.2,0.6,0.5,1.1,0.7,1.7
	c0.1,0.2,0,0.6-0.1,0.7c-0.3,0.3-0.7,0.5-1.1,0.6c-0.1,0-0.4,0-0.5-0.1c-0.3-0.3-0.6-0.6-0.8-0.9c-0.6-0.7-1.2-1.2-2.2-1.1
	c-1.2,0.1-2,1.1-2.1,2.3c0,0.2,0,0.3,0,0.5c0,0.7-0.3,0.9-1,1C290.7,1132,290.5,1132,290.4,1132z M290.9,1114.9
	c-2.4,0-4.4,1.7-4.4,4.5c0,2.2,1.9,4.2,4.1,4.3c2.8,0.1,4.5-1.8,4.6-4.4C295.3,1116.4,293,1115,290.9,1114.9z"/>
<path fill="#D5C8A8" d="M179.7,1132c-1,0-1-0.1-1.1-1c-0.1-0.7-0.1-1.4-0.3-2c-0.3-1.1-2.3-1.6-3.2-0.8c-0.4,0.4-0.8,0.8-1.2,1.2
	c-0.5,0.5-0.9,0.5-1.4,0c-0.7-0.7-0.7-0.8-0.2-1.7c0.5-0.8,0.9-1.7,0.6-2.6c-0.5-1.4-1.2-1.6-2.6-1.4c-0.3,0-0.6,0.1-0.9,0.2
	c-0.6,0.2-0.8-0.1-1.1-0.6c-0.5-1-0.2-1.5,0.8-1.9c0.5-0.2,1.1-0.5,1.5-0.9c0.8-0.7,0.7-2.5-0.2-3.1c-0.4-0.3-0.8-0.5-1.3-0.7
	c-0.7-0.4-0.8-0.6-0.6-1.4c0.3-1,0.6-1.2,1.6-0.9c0.6,0.1,1.2,0.2,1.8,0.2c0.8,0,1.5-0.9,1.7-1.7c0.1-0.8-0.1-1.6-0.5-2.3
	c-0.5-1,0-2.1,1.1-2.2c0.3,0,0.6,0.2,0.9,0.5c0.4,0.4,0.8,0.8,1.2,1.2c0.9,1,2.5,0.5,3-0.8c0.2-0.6,0.4-1.3,0.5-1.9
	c0.1-0.5,0.4-0.7,0.9-0.7c0.2,0,0.4,0,0.7,0c0.9,0.1,1.1,0.3,1,1.2c-0.2,1.2,0.3,2.2,1.3,2.9c0.5,0.4,1.3,0.4,1.8-0.1
	c0.6-0.5,1.1-1,1.6-1.4c0.5-0.5,0.8-0.4,1.3,0c0.7,0.6,0.8,0.8,0.5,1.5c-0.2,0.4-0.5,0.8-0.7,1.2c-0.5,0.7-0.7,1.5-0.2,2.3
	c0.5,0.8,1.2,1.3,2.2,1.1c0.6-0.1,1.2-0.2,1.8-0.3c0.1,0,0.2,0,0.4,0c0.4,0.1,0.8,0.8,0.8,1.4s-0.2,0.8-0.7,1
	c-0.4,0.1-0.8,0.2-1.1,0.4c-0.9,0.4-1.6,0.9-1.7,2c0,1,0.6,1.6,1.4,2.1c0.3,0.2,0.7,0.4,1,0.6c0.8,0.5,0.7,1.9-0.1,2.4
	c-0.2,0.1-0.5,0.1-0.8,0c-0.3-0.1-0.5-0.2-0.8-0.3c-0.9-0.4-1.8-0.2-2.5,0.4c-0.8,0.7-0.9,1.6-0.6,2.5c0.2,0.6,0.5,1.1,0.7,1.7
	c0.1,0.2,0,0.6-0.1,0.7c-0.3,0.3-0.7,0.5-1.1,0.6c-0.1,0-0.4,0-0.5-0.1c-0.3-0.3-0.6-0.6-0.8-0.9c-0.6-0.7-1.2-1.2-2.2-1.1
	c-1.2,0.1-2,1.1-2.1,2.3c0,0.2,0,0.3,0,0.5c0,0.7-0.3,0.9-1,1C180,1132,179.8,1132,179.7,1132z M180.2,1114.9
	c-2.4,0-4.4,1.7-4.4,4.5c0,2.2,1.9,4.2,4.1,4.3c2.8,0.1,4.5-1.8,4.6-4.4C184.6,1116.4,182.3,1115,180.2,1114.9z"/>
<path fill="#D5C8A8" d="M69.9,1132c-1,0-1-0.1-1.1-1c-0.1-0.7-0.1-1.4-0.3-2c-0.3-1.1-2.3-1.6-3.2-0.8c-0.4,0.4-0.8,0.8-1.2,1.2
	c-0.5,0.5-0.9,0.5-1.4,0c-0.7-0.7-0.7-0.8-0.2-1.7c0.5-0.8,0.9-1.7,0.6-2.6c-0.5-1.4-1.2-1.6-2.6-1.4c-0.3,0-0.6,0.1-0.9,0.2
	c-0.6,0.2-0.8-0.1-1.1-0.6c-0.5-1-0.2-1.5,0.8-1.9c0.5-0.2,1.1-0.5,1.5-0.9c0.8-0.7,0.7-2.5-0.2-3.1c-0.4-0.3-0.8-0.5-1.3-0.7
	c-0.7-0.4-0.8-0.6-0.6-1.4c0.3-1,0.6-1.2,1.6-0.9c0.6,0.1,1.2,0.2,1.8,0.2c0.8,0,1.5-0.9,1.7-1.7c0.1-0.8-0.1-1.6-0.5-2.3
	c-0.5-1,0-2.1,1.1-2.2c0.3,0,0.6,0.2,0.9,0.5c0.4,0.4,0.8,0.8,1.2,1.2c0.9,1,2.5,0.5,3-0.8c0.2-0.6,0.4-1.3,0.5-1.9
	c0.1-0.5,0.4-0.7,0.9-0.7c0.2,0,0.4,0,0.7,0c0.9,0.1,1.1,0.3,1,1.2c-0.2,1.2,0.3,2.2,1.3,2.9c0.5,0.4,1.3,0.4,1.8-0.1
	c0.6-0.5,1.1-1,1.6-1.4c0.5-0.5,0.8-0.4,1.3,0c0.7,0.6,0.8,0.8,0.5,1.5c-0.2,0.4-0.5,0.8-0.7,1.2c-0.5,0.7-0.7,1.5-0.2,2.3
	c0.5,0.8,1.2,1.3,2.2,1.1c0.6-0.1,1.2-0.2,1.8-0.3c0.1,0,0.2,0,0.4,0c0.4,0.1,0.8,0.8,0.8,1.4c0,0.5-0.2,0.8-0.7,1
	c-0.4,0.1-0.8,0.2-1.1,0.4c-0.9,0.4-1.6,0.9-1.7,2c0,1,0.6,1.6,1.4,2.1c0.3,0.2,0.7,0.4,1,0.6c0.8,0.5,0.7,1.9-0.1,2.4
	c-0.2,0.1-0.5,0.1-0.8,0c-0.3-0.1-0.5-0.2-0.8-0.3c-0.9-0.4-1.8-0.2-2.5,0.4c-0.8,0.7-0.9,1.6-0.6,2.5c0.2,0.6,0.5,1.1,0.7,1.7
	c0.1,0.2,0,0.6-0.1,0.7c-0.3,0.3-0.7,0.5-1.1,0.6c-0.1,0-0.4,0-0.5-0.1c-0.3-0.3-0.6-0.6-0.8-0.9c-0.6-0.7-1.2-1.2-2.2-1.1
	c-1.2,0.1-2,1.1-2.1,2.3c0,0.2,0,0.3,0,0.5c0,0.7-0.3,0.9-1,1C70.2,1132,70.1,1132,69.9,1132z M70.4,1114.9c-2.4,0-4.4,1.7-4.4,4.5
	c0,2.2,1.9,4.2,4.1,4.3c2.8,0.1,4.5-1.8,4.6-4.4C74.8,1116.4,72.5,1115,70.4,1114.9z"/>
<path fill="#D5C8A8" d="M525,1132c-1,0-1-0.1-1.1-1c-0.1-0.7-0.1-1.4-0.3-2c-0.3-1.1-2.3-1.6-3.2-0.8c-0.4,0.4-0.8,0.8-1.2,1.2
	c-0.5,0.5-0.9,0.5-1.4,0c-0.7-0.7-0.7-0.8-0.2-1.7c0.5-0.8,0.9-1.7,0.6-2.6c-0.5-1.4-1.2-1.6-2.6-1.4c-0.3,0-0.6,0.1-0.9,0.2
	c-0.6,0.2-0.8-0.1-1.1-0.6c-0.5-1-0.2-1.5,0.8-1.9c0.5-0.2,1.1-0.5,1.5-0.9c0.8-0.7,0.7-2.5-0.2-3.1c-0.4-0.3-0.8-0.5-1.3-0.7
	c-0.7-0.4-0.8-0.6-0.6-1.4c0.3-1,0.6-1.2,1.6-0.9c0.6,0.1,1.2,0.2,1.8,0.2c0.8,0,1.5-0.9,1.7-1.7c0.1-0.8-0.1-1.6-0.5-2.3
	c-0.5-1,0-2.1,1.1-2.2c0.3,0,0.6,0.2,0.9,0.5c0.4,0.4,0.8,0.8,1.2,1.2c0.9,1,2.5,0.5,3-0.8c0.2-0.6,0.4-1.3,0.5-1.9
	c0.1-0.5,0.4-0.7,0.9-0.7c0.2,0,0.4,0,0.7,0c0.9,0.1,1.1,0.3,1,1.2c-0.2,1.2,0.3,2.2,1.3,2.9c0.5,0.4,1.3,0.4,1.8-0.1
	c0.6-0.5,1.1-1,1.6-1.4c0.5-0.5,0.8-0.4,1.3,0c0.7,0.6,0.8,0.8,0.5,1.5c-0.2,0.4-0.5,0.8-0.7,1.2c-0.5,0.7-0.7,1.5-0.2,2.3
	c0.5,0.8,1.2,1.3,2.2,1.1c0.6-0.1,1.2-0.2,1.8-0.3c0.1,0,0.2,0,0.4,0c0.4,0.1,0.8,0.8,0.8,1.4s-0.2,0.8-0.7,1
	c-0.4,0.1-0.8,0.2-1.1,0.4c-0.9,0.4-1.6,0.9-1.7,2c0,1,0.6,1.6,1.4,2.1c0.3,0.2,0.7,0.4,1,0.6c0.8,0.5,0.7,1.9-0.1,2.4
	c-0.2,0.1-0.5,0.1-0.8,0c-0.3-0.1-0.5-0.2-0.8-0.3c-0.9-0.4-1.8-0.2-2.5,0.4c-0.8,0.7-0.9,1.6-0.6,2.5c0.2,0.6,0.5,1.1,0.7,1.7
	c0.1,0.2,0,0.6-0.1,0.7c-0.3,0.3-0.7,0.5-1.1,0.6c-0.1,0-0.4,0-0.5-0.1c-0.3-0.3-0.6-0.6-0.8-0.9c-0.6-0.7-1.2-1.2-2.2-1.1
	c-1.2,0.1-2,1.1-2.1,2.3c0,0.2,0,0.3,0,0.5c0,0.7-0.3,0.9-1,1C525.3,1132,525.2,1132,525,1132z M525.5,1114.9
	c-2.4,0-4.4,1.7-4.4,4.5c0,2.2,1.9,4.2,4.1,4.3c2.8,0.1,4.5-1.8,4.6-4.4C529.9,1116.4,527.6,1115,525.5,1114.9z"/>
</svg>
