<?xml version="1.0" encoding="utf-8"?>
<!-- Generator: Adobe Illustrator 18.1.1, SVG Export Plug-In . SVG Version: 6.00 Build 0)  -->
<!DOCTYPE svg PUBLIC "-//W3C//DTD SVG 1.1//EN" "http://www.w3.org/Graphics/SVG/1.1/DTD/svg11.dtd">
<svg version="1.1" id="Layer_1" xmlns="http://www.w3.org/2000/svg" xmlns:xlink="http://www.w3.org/1999/xlink" x="0px" y="0px"
	 width="475px" height="335px" viewBox="0 0 475 335" enable-background="new 0 0 475 335" xml:space="preserve">
<g>
	<g id="Emco7U_6_">
		<g>
			<g>
				<path fill-rule="evenodd" clip-rule="evenodd" fill="#D5C8A8" d="M88.6,225.1c-8.5,0-16.9,0-25.4,0c-5,0-9.9-0.8-14.6-2.6
					c-7.1-2.7-12.6-7.4-16.7-13.8c-2.5-3.9-4.3-8-5.4-12.5c-0.2-0.9-0.6-1.7-1.3-2.3c-6.7-5.9-10.1-13.5-11.8-22.1
					c-0.3-1.3-0.4-2.7-0.6-4c-0.1-1-0.5-1.9-1.2-2.7c-4.4-5-7.3-10.9-9.1-17.3c-1.8-6.2-2.6-12.5-2.4-19c0-0.6-0.1-1.3,0.6-1.6
					c0.7-0.3,1.1,0.3,1.5,0.8c1.1,1.1,2.2,2.3,3.3,3.4c5.3,4.8,11.4,8.2,18,10.6c6.1,2.2,12.4,3.5,18.9,3.6
					c8.9,0.1,17.8,0.1,26.7,0.1c0.1,0,0.2,0,0.3,0c1.2-0.1,1.6-0.6,1.5-1.8c-0.2-1.8-0.4-3.5-0.6-5.3c-0.1-0.6-0.1-1.3-0.1-1.9
					c0-0.4,0.1-0.9,0.6-1c0.3-0.1,0.8,0.1,1,0.3c0.5,0.5,1,1,1.5,1.5c1.6,2,3.7,3.3,6.1,4.2c4.1,1.5,8.4,2.4,12.7,3.1
					c7,1,14,1.4,21,1.4c5,0,9.9,0.1,14.9,0.6c9.3,1,18.3,3,26.8,7c5.5,2.6,10.6,5.9,15,10.2c2,1.9,3.8,4,5.8,6
					c0.3,0.4,0.6,0.7,1,1.1c0.7,0.6,1.2,0.4,1.4-0.5c0.1-0.2,0.1-0.5,0.1-0.7c0.5-8.2,2.5-16.1,6-23.6c1-2.1,0.8-2.4-1.4-2.9
					c-2.6-0.6-5.1-1.6-7.2-3.2c-3.1-2.3-5.1-5.4-6.4-9.1c-1-3-1.5-6.2-1.7-9.4c-0.1-1.4-0.1-2.7-0.1-4.1c0-11,0-21.9,0-32.9
					c0-1.5,0-3,0.3-4.5c0.7-4,3.1-6.1,7.1-6.5c0.9-0.1,1.8-0.2,2.7-0.2c5.1,0,8.3,2.9,8.8,8c0.1,1.2,0.1,2.3,0.1,3.5
					c0,10.2,0,20.5,0,30.7c0,0.4,0,0.8,0,1.1c0.1,4,1.2,5.4,3.7,7c1.8,1.2,3.8,2.1,5.8,2.8c1.2,0.4,2.2,0.2,3.2-0.7
					c4.2-3.7,8.8-6.8,13.9-9.2c6.9-3.3,14.2-5.1,21.9-5.5c15-0.6,28.1,4.1,39.7,13.5c0.6,0.5,1.1,1,1.7,1.5c0.7,0.6,1.5,0.7,2.3,0.5
					c2.7-0.9,5.2-2,7.3-3.8c1.6-1.4,2.5-3,2.5-5.2c0-10.9,0-21.8,0-32.8c0-1.4,0-2.7,0.2-4.1c0.4-2.7,1.5-4.9,3.9-6.3
					c1-0.6,2.1-0.9,3.2-1c1.9-0.2,3.9-0.1,5.8,0.3c2.6,0.6,4.4,2.3,5.2,4.9c0.5,1.6,0.7,3.2,0.7,4.8c0,4.8,0,9.6,0,14.4
					c0,6.8,0,13.5,0,20.3c0,3.2-0.2,6.4-0.9,9.5c-0.7,3.2-1.8,6.2-3.8,8.8c-2.5,3.3-5.8,5.4-9.8,6.5c-0.6,0.2-1.2,0.3-1.8,0.5
					c-0.8,0.3-1.1,0.8-0.8,1.6c0.1,0.3,0.3,0.6,0.4,0.9c3.3,7.2,5.4,14.7,6,22.5c0,0.5,0.1,1.1,0.2,1.6c0.2,0.6,0.7,0.7,1.2,0.3
					c0.3-0.2,0.5-0.5,0.8-0.8c4.7-5.5,10.1-10.2,16.4-13.8c6.4-3.7,13.3-6.1,20.5-7.6c5.9-1.2,11.8-1.9,17.8-2.1
					c3-0.1,6.1-0.1,9.1-0.2c7.5-0.1,14.9-0.6,22.3-1.9c3.6-0.6,7.2-1.5,10.6-2.9c1.8-0.7,3.4-1.7,4.7-3.2c0.6-0.7,1.3-1.3,1.9-2
					c0.2-0.2,0.4-0.4,0.7-0.6c0.6-0.3,1.1-0.2,1.2,0.5c0.1,0.4,0.1,0.8,0,1.2c-0.2,2.1-0.4,4.2-0.7,6.3c-0.1,1.3,0.3,1.8,1.6,1.9
					c0.2,0,0.5,0,0.7,0c8,0,15.9,0,23.9,0c8.5,0,16.7-1.5,24.5-4.9c5-2.2,9.8-4.9,13.9-8.5c1.4-1.2,2.6-2.6,3.9-3.9
					c0.3-0.3,0.6-0.6,0.9-0.9c0.7-0.5,1.2-0.3,1.5,0.5c0.1,0.2,0.1,0.5,0.1,0.8c0.2,9.7-1.5,19-5.8,27.8c-1.5,3-3.3,5.7-5.5,8.2
					c-0.9,1-1.3,2-1.5,3.4c-0.8,6.2-2.5,12.2-5.7,17.6c-1.7,2.8-3.6,5.4-6.1,7.6c-1.1,0.9-1.6,2-2,3.3c-1.8,6.9-5.1,13-10.1,18
					c-5.5,5.5-12.2,8.7-19.8,9.8c-2.5,0.4-5.1,0.5-7.6,0.5c-17.3,0-34.5,0-51.8,0c-1.6,0-3,0.3-4.5,1.1c-2.9,1.6-6.2,2.3-9.5,2.3
					c-7.4,0-14.8,0.9-22,2.8c-7.4,1.9-14.4,4.5-20.9,8.5c-2,1.3-3.9,2.7-5.8,4.2c-0.8,0.6-1.5,1.5-2.1,2.4
					c-4.5,6.8-10,12.7-16.5,17.6c-1.4,1-1.5,1.5-0.9,3.1c2.5,6.4,6,12.3,10.4,17.5c5.6,6.7,12.3,12.2,19.9,16.3
					c1.1,0.6,2.3,1.1,3.4,1.6c0.3,0.1,0.6,0.2,0.8,0.4c0.9,0.6,1,1.1,0.4,2c-0.1,0.2-0.2,0.3-0.4,0.4c-4.2,4.5-8.7,8.6-14.1,11.6
					c-2.1,1.2-4.4,2.2-6.8,2.8c-0.9,0.2-1.7,0.7-2.5,1.2c-7,4.7-14.6,8-22.7,9.9c-1.3,0.3-2.7,0.6-4,0.3c-0.5-0.1-1.1,0.1-1.7,0.2
					c-5.4,1.3-10.8,2.2-16.3,2.7c-8.1,0.7-16.2,0.6-24.2-1.2c-2.7-0.6-5.3-1.8-8.2-1.7c-8.7-1.8-16.7-5.2-24.1-10.2
					c-1-0.7-2-1.2-3.2-1.4c-2.9-0.7-5.5-2.2-8-3.7c-4.6-2.9-8.6-6.6-12.3-10.6c-0.2-0.2-0.3-0.4-0.5-0.6c-0.4-0.7-0.3-1.1,0.3-1.6
					c0.2-0.2,0.5-0.3,0.8-0.4c5.3-2.2,10-5.4,14.4-9c7.5-6.1,13.4-13.5,17.6-22.2c0.7-1.5,1.4-3,2-4.6c0.6-1.4,0.4-1.9-0.8-2.8
					c-3-2.3-5.8-4.7-8.5-7.4c-2.8-2.9-5.3-5.9-7.5-9.3c-1.2-1.9-2.7-3.4-4.5-4.7c-4.3-3.2-9-5.7-14-7.7c-8.9-3.6-18.2-5.6-27.9-6.2
					c-1.8-0.1-3.6-0.2-5.5-0.2c-3.3,0-6.4-0.8-9.3-2.4c-1.3-0.7-2.6-1-4.1-1C106.9,225.1,97.8,225.1,88.6,225.1
					C88.6,225.1,88.6,225.1,88.6,225.1z M302.3,103L302.3,103c0-6.2,0-12.4,0-18.5c0-1-0.1-2-0.2-2.9c-0.2-1.2-0.9-1.9-2.1-2.1
					c-0.9-0.1-1.7-0.2-2.6-0.2c-1.7,0.1-2.6,0.8-2.9,2.5c-0.2,1-0.2,2-0.2,2.9c0,10.7,0,21.4,0,32.1c0,0.8,0,1.6,0,2.4
					c0,2.2-0.8,4.1-2.1,5.9c-1.6,2.2-3.8,3.7-6.1,5c-5.4,2.8-11.3,4.2-17.4,4.4c-2,0.1-3.9,0.1-5.9,0.3c-4.5,0.3-8.7,1.6-12.6,3.9
					c-1.1,0.7-2.3,1.3-3.5,1.9c-5.7,2.7-11.4,2.8-17.2,0.3c-1.2-0.5-2.4-1.2-3.5-1.9c-3.8-2.3-7.9-3.7-12.3-4.1
					c-2-0.2-4.1-0.3-6.1-0.3c-4.7-0.1-9.3-0.9-13.8-2.5c-2.7-1-5.2-2.2-7.4-3.9c-3.4-2.6-5.4-5.9-5.1-10.4c0-0.6,0-1.2,0-1.8
					c0-10.5,0-20.9,0-31.4c0-1-0.1-2-0.3-2.9c-0.3-1.4-1.2-2.1-2.6-2.3c-0.8-0.1-1.5,0-2.3,0.1c-1.7,0.2-2.5,0.9-2.8,2.6
					c-0.1,1-0.1,2-0.1,3c0,11,0,22,0,33c0,1,0,2,0,3.1c0.2,3.3,0.6,6.5,1.8,9.6c1.6,3.9,4.4,6.4,8.4,7.5c1.8,0.5,3.7,0.7,5.6,0.8
					c2,0.2,3.9,0.3,5.8,0.8c7,1.7,13,5.2,18.3,9.9c5.1,4.6,9,10.1,12,16.2c4.5,8.9,6.9,18.4,8.3,28.3c0.8,6,1.3,12.1,1.4,18.1
					c0,1.4,0.8,2.2,2,2.8c1.1,0.6,2,0,2.8-0.6c0.8-0.6,1.1-1.5,1.1-2.5c0.1-3.4,0.2-6.7,0.5-10.1c0.5-7.3,1.7-14.5,3.7-21.5
					c2.2-8,5.4-15.5,10.2-22.2c4.8-6.8,10.7-12.1,18.3-15.7c4.4-2.1,8.9-3.4,13.8-3.5c1.1,0,2.2-0.2,3.3-0.4
					c5.7-0.9,9.2-4.2,10.8-9.7c0.9-3.1,1.2-6.3,1.2-9.6C302.3,113.8,302.3,108.4,302.3,103z M237.5,271.7c0.4,0,0.8,0,1.3,0
					c0.6,0,1.1-0.1,1.7-0.1c9.5-0.4,18.5-2.9,26.8-7.5c10.8-5.9,19.2-14.3,25-25.1c5.4-10,7.7-20.7,7.1-32
					c-0.3-4.9-1.1-9.8-2.5-14.5c-0.1-0.3-0.2-0.7-0.3-1c-0.2-0.3-0.4-0.6-0.7-0.6c-0.2,0-0.6,0.3-0.7,0.6c-0.2,0.5-0.3,1-0.5,1.5
					c-0.7,2-1.4,4-2.1,6c-0.4,1.2-1.1,2-2.4,2.4c-1,0.2-1.2,0.8-1.2,1.8c0,0.6,0,1.2,0.1,1.8c0.2,3.3,0,6.5-0.4,9.8
					c-1.9,13.5-8,24.8-18.5,33.6c-10.7,9-23.2,13-37.2,11.7c-15-1.4-27-8.3-36.2-20.2c-7.8-10.2-11.3-21.8-10.9-34.6
					c0-0.8,0.1-1.6,0.1-2.4c0-0.8-0.3-1.4-1-1.6c-1.1-0.4-1.7-1.2-2.1-2.3c-0.8-2.2-1.5-4.4-2.3-6.6c-0.2-0.5-0.2-1-0.5-1.5
					c-0.2-0.4-0.4-0.8-0.7-0.9c-0.5-0.1-0.7,0.4-0.8,0.8c-0.3,0.8-0.6,1.6-0.8,2.5c-2,7-2.7,14.1-2.2,21.3c1,13.8,6.1,26,15.4,36.3
					C203.4,264.6,219.1,271.3,237.5,271.7z M297.6,181c0.2,0.5,0.2,0.8,0.4,1.1c0.9,1.7,1.9,3.4,2.8,5.1c0.5,0.8,1,1,1.8,0.5
					c0.2-0.1,0.4-0.2,0.6-0.4c3.1-2.2,6.5-4,10-5.5c8-3.4,16.4-5.3,25-6.6c9.3-1.3,18.6-1.8,28-1.9c2,0,4.1,0,6.1-0.1
					c4.8-0.3,9.1-1.8,13-4.7c2.7-2,4.8-4.5,6.6-7.3c2.4-3.7,4.1-7.8,5.3-12c0.1-0.5,0.4-1-0.1-1.5c-0.5-0.4-1-0.2-1.5-0.1
					c-0.1,0-0.2,0.1-0.3,0.1c-2.3,0.6-4.6,1.3-6.9,1.8c-7.5,1.5-15,2.1-22.6,2.3c-3.6,0.1-7.3,0.1-10.9,0.2
					c-6.3,0.2-12.6,0.9-18.8,2.3c-5.8,1.3-11.4,3.3-16.6,6.1c-5.5,3-10.3,6.9-14.5,11.6c-2.2,2.4-4.2,5-6.3,7.5
					C298.1,180,297.9,180.5,297.6,181z M78.7,147.5c-0.7,0-1.1,0.3-1,0.9c0,0.4,0.1,0.7,0.2,1.1c0.9,3.3,2.2,6.5,3.9,9.6
					c1.9,3.4,4.2,6.4,7.2,8.9c4.3,3.6,9.4,5.2,14.9,5.3c5.1,0.1,10.2,0.2,15.2,0.4c7.7,0.3,15.3,1.1,22.8,2.4
					c10.8,2,21.1,5.1,30.2,11.4c1,0.7,1.5,0.5,2.1-0.6c0.8-1.7,1.6-3.4,2.5-5.1c0.4-0.9,0.3-1.7-0.3-2.4c-3.2-3.9-6.4-7.9-10.2-11.3
					c-4.1-3.8-8.7-6.8-13.8-9.2c-5.7-2.7-11.8-4.4-18-5.5c-6.4-1.1-12.9-1.5-19.4-1.5c-5.9,0-11.8-0.2-17.6-0.8
					c-6.1-0.6-12.1-1.5-18-3.4C79.2,147.6,78.9,147.5,78.7,147.5z M58.2,171.1c7.6,0,15.2,0,22.9,0c0.5,0,0.9,0,1.4-0.1
					c0.6-0.1,0.8-0.6,0.5-1.1c-0.2-0.3-0.5-0.6-0.7-0.9c-3-3.3-5.3-7.1-7.1-11.2c-0.7-1.6-1.3-3.3-1.9-5c-0.4-1.1-1.1-1.6-2.2-1.5
					c-0.4,0-0.8,0-1.1,0c-5.6,0-11.2,0-16.7,0c-3.9,0-7.8,0-11.7-0.1c-10.3-0.4-20-3.1-29.1-8.1c-1.4-0.8-2.7-1.7-4.1-2.5
					c-0.4-0.3-0.9-0.7-1.4-0.3c-0.5,0.4-0.3,1-0.2,1.5c1,5.2,2.7,10.2,5.4,14.8c4.2,7.1,10.1,11.8,18.2,13.7c2.8,0.7,5.7,0.9,8.6,1
					C45.2,171.1,51.7,171.1,58.2,171.1z M416.7,171.1c6.1,0,12.3,0,18.4,0c1.7,0,3.3,0,5-0.2c9.7-0.9,17.2-5.4,22.4-13.7
					c3-4.8,4.8-10.1,5.9-15.7c0-0.1,0.1-0.3,0.1-0.4c0.1-0.9-0.4-1.3-1.2-0.9c-0.4,0.2-0.8,0.5-1.2,0.7c-5.5,3.5-11.4,6.1-17.7,7.9
					c-6.4,1.8-12.9,2.5-19.5,2.4c-8,0-16.1,0-24.1,0c-2.4,0-2.5,0.1-3.3,2.4c-2,5.8-4.8,11.2-9.1,15.7c-0.1,0.1-0.2,0.2-0.3,0.4
					c-0.4,0.6-0.2,1.1,0.5,1.3c0.4,0.1,0.9,0.1,1.4,0.1C401.6,171.1,409.2,171.1,416.7,171.1z M303.2,194.9c0.1,0.5,0.1,0.8,0.2,1.1
					c0.8,3.6,1.3,7.2,1.4,10.9c0.1,1.8,0.6,2.1,2.2,1.3c4-2.2,8.3-3.8,12.8-5c9.7-2.7,19.6-3.8,29.7-4.3c3.7-0.2,7.5-0.2,11.3-0.3
					c5.1-0.1,9.3-2.1,12.3-6.2c2.9-3.9,4.4-8.3,5.3-12.9c0.2-1.1-0.3-1.6-1.4-1.4c-3.3,0.6-6.6,0.7-10,0.7c-8.8,0-17.7,0.5-26.4,1.7
					c-7.5,1-14.9,2.5-22,5.1c-4.8,1.8-9.3,4-13.4,7.1c-0.4,0.3-0.9,0.7-1.3,1.1C303.5,194.2,303.4,194.7,303.2,194.9z M171.6,195.4
					c0.1-0.9-0.2-1.4-0.6-1.8c-0.5-0.5-1-0.9-1.6-1.3c-4.6-3.3-9.7-5.7-15-7.5c-8.4-2.8-17.1-4.2-26-5.1c-7.6-0.7-15.3-1-22.9-1
					c-2.4,0-4.8-0.1-7.1-0.6c-0.3-0.1-0.5-0.1-0.8-0.1c-0.6,0-0.9,0.4-1,0.9c0,0.3,0,0.5,0.1,0.8c0.7,3.6,1.8,7,3.6,10.1
					c3.2,5.8,8,8.8,14.7,8.7c3.3-0.1,6.5,0.1,9.8,0.2c6,0.2,11.9,0.8,17.8,1.7c9,1.4,17.8,3.4,25.9,7.9c1,0.5,1.6,0.1,1.7-1
					c0-0.2,0-0.3,0-0.5c0.2-3.6,0.6-7.2,1.3-10.7C171.5,196,171.6,195.6,171.6,195.4z M69.5,195.5c8.2,0,16.4,0,24.6,0
					c0.4,0,0.8,0,1.3,0c1.1-0.1,1.4-0.6,0.9-1.6c-0.4-0.7-0.8-1.4-1.2-2.1c-2.1-4-3.3-8.3-4.1-12.7c-0.4-2.4-0.6-2.5-3-2.5
					c-15.9,0-31.9,0-47.8,0c-1.1,0-2.1,0-3.2,0c-4.9-0.2-9.7-1.1-14.2-3.2c-0.7-0.3-1.4-0.7-2.1-1c-1-0.4-1.5,0-1.3,1
					c0,0.2,0.1,0.4,0.1,0.6c0.9,3.5,2.3,6.8,4.2,9.9c3.8,6,9.2,9.7,16.1,11c2.2,0.4,4.4,0.5,6.7,0.6
					C54.2,195.5,61.8,195.5,69.5,195.5z M412.7,176.6c-8.5,0-16.9,0-25.4,0c-0.4,0-0.8,0-1.3,0c-1.1,0.1-1.6,0.4-1.8,1.5
					c-0.1,0.4-0.2,0.8-0.2,1.2c-0.9,5-2.4,9.8-5,14.2c-0.1,0.2-0.2,0.4-0.3,0.6c-0.3,0.7,0,1.2,0.8,1.3c0.4,0.1,0.8,0,1.3,0
					c15.9,0,31.9,0,47.8,0c1.5,0,3-0.1,4.4-0.2c7.4-0.8,13.4-4.1,17.7-10.3c2.4-3.4,3.9-7.1,5-11c0.1-0.3,0.1-0.5,0.1-0.8
					c0-0.7-0.4-1-1-0.8c-0.4,0.1-0.8,0.3-1.1,0.5c-2.2,1.1-4.5,1.9-6.9,2.5c-3.5,0.9-7,1.2-10.6,1.2
					C428.2,176.6,420.4,176.6,412.7,176.6z M402.5,201c-9.4,0-18.8,0-28.2,0c-0.5,0-1.1,0-1.6,0c-1.4,0.2-2.9,0.7-3.3,2.8
					c-0.1,0.3-0.2,0.7-0.3,1c-1.2,4.5-3,8.8-5.5,12.7c-0.2,0.3-0.3,0.5-0.5,0.8c-0.4,0.8-0.1,1.3,0.7,1.4c0.5,0.1,1,0,1.5,0
					c15.1,0,30.1,0,45.2,0c1.1,0,2.1,0,3.2-0.1c4.4-0.2,8.6-1.1,12.6-3c6.9-3.3,11.6-8.7,14.7-15.6c0.1-0.2,0.2-0.4,0.2-0.6
					c0.1-0.7-0.3-1.1-1-1c-0.2,0-0.4,0.1-0.5,0.1c-3.7,1.1-7.5,1.6-11.3,1.5C419.8,201,411.2,201,402.5,201z M85.5,219.7
					c8,0,15.9,0,23.9,0c0.4,0,0.8,0,1.3,0c1.3-0.1,1.6-0.6,0.9-1.7c-2.8-4.4-4.7-9.2-6.1-14.2c-0.5-1.7-1.6-2.7-3.4-2.8
					c-0.5,0-1.1,0-1.6,0c-17.8,0-35.6,0-53.4,0c-1.6,0-3.1,0-4.7-0.1c-2.6-0.2-5.1-0.7-7.6-1.5c-0.4-0.1-0.8-0.2-1.2,0.1
					c-0.3,0.4-0.2,0.8,0,1.2c0.5,1,0.9,2,1.4,3c4,7.2,9.8,12.2,17.8,14.6c3.5,1,7.1,1.4,10.7,1.4C71,219.7,78.2,219.7,85.5,219.7z
					 M291.9,174.2c-0.1-1.9-0.2-3.7-0.3-5.6c-0.1-1.2-0.3-2.5-0.5-3.7c-1-6.4-3-12.5-5.9-18.2c-1.1-2.1-1.5-2.3-3.8-1.7
					c-3.6,0.9-6.9,2.4-10,4.4c-1.6,1-1.6,1.6-0.1,2.6c1.6,1.1,3,2.4,4.2,3.8c8.9,10.8,3.6,27.5-9.9,31.2c-5,1.3-9.8,0.8-14.3-1.6
					c-1.6-0.8-2.1-0.6-2.5,1.2c0,0,0,0.1,0,0.1c-1.5,6.9-2.2,14-2.6,21.1c0,0.2,0,0.5,0,0.7c0.1,0.9,0.6,1.2,1.4,0.9
					c0.5-0.2,0.9-0.4,1.3-0.7c3.5-1.7,6.9-3.4,10.4-4.9c6.5-2.9,13.4-4.6,20.3-6.1c2.2-0.5,4.4-0.9,6.6-1.3c1.1-0.2,1.8-0.8,2.1-1.8
					c0.1-0.3,0.2-0.6,0.3-1C290.8,187.4,291.9,180.9,291.9,174.2z M183.6,174.2c0,4.8,0.5,9.5,1.7,14.2c0.5,2,1.2,4,1.8,6
					c0.3,1.1,1.1,1.7,2.2,1.8c0.8,0.1,1.6,0.3,2.5,0.4c7.5,1.3,14.8,3.1,21.7,6.2c4.5,2,8.8,4.3,13.2,6.4c0.4,0.2,0.7,0.4,1.1,0.6
					c0.7,0.2,1.1,0,1.2-0.7c0.1-0.3,0-0.7,0-1c-0.1-1.5-0.1-3-0.2-4.5c-0.4-5.6-1.1-11.2-2.3-16.7c-0.1-0.3-0.1-0.6-0.2-0.9
					c-0.3-0.9-0.8-1.1-1.7-0.7c-0.4,0.2-0.8,0.4-1.2,0.6c-7.6,3.6-17,1.8-22.6-4.3c-8.1-8.9-6.7-22.4,3.2-29.4
					c1.6-1.1,1.6-1.6-0.1-2.7c-3-1.9-6.3-3.4-9.7-4.3c-2.4-0.6-2.8-0.5-3.9,1.8C185.8,155.5,183.6,164.6,183.6,174.2z M121.5,204.1
					c-2.7,0-5.4,0-8.1,0c-0.3,0-0.5,0-0.8,0c-0.6,0.1-0.8,0.5-0.8,1c0,0.3,0.1,0.5,0.2,0.8c1.3,3.9,3,7.6,5.6,10.8
					c3.3,4.1,7.5,6.3,12.8,6.3c3.6,0,7.1,0.3,10.7,0.7c10.9,1.2,21.2,4.2,31,9.3c0.3,0.2,0.6,0.3,0.9,0.4c0.7,0.2,1-0.2,0.9-0.9
					c-0.1-0.4-0.2-0.8-0.4-1.2c-1.4-4.1-2.4-8.4-2.9-12.7c-0.2-1.6-0.8-2.8-2.2-3.6c-1.7-1-3.4-2.1-5.2-3c-4.9-2.4-10-3.8-15.3-4.9
					C139.2,205.3,130.3,204.5,121.5,204.1z M353.4,204.1c-6.3,0.3-12.5,0.8-18.7,1.7c-6.4,0.9-12.7,2.2-18.8,4.4
					c-3.4,1.3-6.6,2.8-9.6,5c-1.1,0.8-1.8,1.9-2,3.3c-0.5,4.5-1.6,9-3,13.3c-0.1,0.3-0.2,0.5-0.2,0.8c-0.1,0.8,0.3,1.2,1.1,0.9
					c0.3-0.1,0.6-0.3,0.9-0.4c7.4-3.8,15.2-6.4,23.4-8.1c6.2-1.2,12.4-1.8,18.8-1.9c4.1,0,7.5-1.5,10.4-4.4
					c3.7-3.6,5.8-8.1,7.4-12.9c0-0.1,0.1-0.3,0.1-0.4c0.1-0.6-0.2-1-0.8-1.2c-0.3-0.1-0.5-0.1-0.8-0.1
					C358.9,204.1,356.2,204.1,353.4,204.1z M240.6,278.9c0.4,5.2,1.4,10.2,3,15c3.1,9.5,8.1,18,14.4,25.6c1.4,1.7,2.9,3.3,4.4,4.9
					c0.9,0.9,1.9,1.2,3.1,0.8c0.2-0.1,0.4-0.1,0.6-0.1c4.7-1.3,9.3-3.1,13.6-5.4c0.9-0.5,1.9-1,2.7-1.6c0.9-0.6,0.9-1.1,0-1.8
					c-0.2-0.2-0.5-0.3-0.8-0.5c-4.2-2.7-7.8-6-11-9.8c-4.6-5.3-8.4-11.2-11.7-17.4c-2-3.7-3.7-7.5-5.3-11.5
					c-0.6-1.4-1.1-1.6-2.5-1.4c-2.9,0.4-5.8,0.8-8.7,1.2C241,277.2,240.6,277.6,240.6,278.9z M234.9,278.8c-0.1-1.2-0.5-1.6-1.6-1.8
					c-0.1,0-0.3,0-0.5,0c-2.9-0.4-5.9-0.8-8.8-1.2c-1.6-0.2-2.1,0-2.7,1.5c-0.2,0.4-0.3,0.8-0.5,1.2c-3.4,8.2-7.5,16-12.8,23.1
					c-4.2,5.7-9.1,10.8-15.2,14.6c-0.2,0.1-0.4,0.3-0.6,0.5c-0.4,0.4-0.4,0.8,0,1.2c0.3,0.3,0.7,0.6,1.1,0.8
					c4.7,2.7,9.7,4.9,14.9,6.3c2.6,0.7,2.9,0.6,4.5-1.5c4.4-5.6,8.4-11.4,11.9-17.6c3.5-6.1,6.5-12.5,8.4-19.4
					C233.8,284,234.3,281.4,234.9,278.8z M290.6,314.1c0.8-0.3,1.5-0.5,2.2-0.8c3.5-1.7,6.6-4,9.5-6.5c0.2-0.2,0.4-0.4,0.5-0.6
					c0.4-0.5,0.4-0.9-0.1-1.3c-0.4-0.3-0.8-0.6-1.2-0.9c-4.2-2.6-8.1-5.5-11.7-8.8c-7.6-7-13.5-15.1-17.5-24.7
					c-0.9-2.1-1.2-2.1-3.2-1.2c-2.7,1.3-5.5,2.5-8.2,3.7c-0.5,0.2-0.9,0.3-1.4,0.5c-0.9,0.4-1.1,0.9-0.8,1.9
					c0.1,0.3,0.2,0.5,0.3,0.7c2.4,5.9,5.3,11.6,8.7,17c3.6,5.6,7.6,10.8,12.8,15.1c2.4,2,5,3.7,7.8,5
					C289.1,313.6,289.9,313.8,290.6,314.1z M184.3,314c0.5-0.1,0.9-0.2,1.3-0.4c1-0.4,2-0.9,3-1.4c4.9-2.7,8.9-6.5,12.4-10.7
					c6.4-7.7,11.1-16.4,14.9-25.7c0.6-1.5,0.4-2-1.1-2.6c-0.1,0-0.1-0.1-0.2-0.1c-3.1-1.1-6.2-2.5-9.1-4c-1.6-0.8-2-0.7-2.7,1
					c-0.1,0.1-0.1,0.3-0.2,0.4c-1.7,4.1-3.9,8.1-6.4,11.8c-6,8.8-13.6,15.9-22.7,21.5c-0.4,0.2-0.7,0.4-1,0.7
					c-0.7,0.6-0.7,1.1-0.1,1.7c0.4,0.4,0.8,0.8,1.3,1.1c2.7,2.3,5.6,4.3,8.8,5.8C183,313.6,183.7,313.8,184.3,314z M237.7,117.1
					c-9,0-17.5,2.2-25.4,6.6c-1.9,1.1-3.8,2.4-5.6,3.7c-0.3,0.2-0.6,0.7-0.6,1c0,0.5,0.6,0.6,1.1,0.6c0.2,0,0.5,0,0.7,0
					c1.8,0.1,3.6,0.1,5.4,0.3c3.9,0.3,7.7,1.2,11.3,2.9c1.9,0.9,3.7,2,5.5,3c4.8,2.6,9.6,2.7,14.5,0.2c1.1-0.6,2.2-1.2,3.3-1.8
					c3.1-1.7,6.3-3,9.8-3.6c3-0.6,5.9-0.8,8.9-0.9c0.6,0,1.1,0,1.7-0.1c0.3-0.1,0.7-0.3,0.9-0.5c0.1-0.2-0.2-0.6-0.4-0.9
					c-0.2-0.3-0.6-0.5-0.9-0.7C258.9,120.5,248.8,117.2,237.7,117.1z M235.9,329.1c6.2-0.1,12.3-0.9,18.4-2.1
					c0.3-0.1,0.6-0.1,0.9-0.2c0.9-0.3,1-0.8,0.5-1.6c-0.2-0.2-0.4-0.5-0.6-0.7c-3.4-3.9-6.4-8.1-9.1-12.5c-3.2-5.4-5.9-11-7.8-17
					c-0.2-0.6-0.2-1.4-1-1.5c-0.7,0-0.8,0.8-1,1.3c-0.6,1.3-1.1,2.7-1.7,4c-3.6,8.1-8.3,15.7-13.5,22.9c-0.9,1.2-1.8,2.4-2.7,3.7
					c-0.6,0.9-0.4,1.4,0.6,1.8c0.4,0.2,0.8,0.2,1.2,0.3C225.3,328.8,230.6,329.2,235.9,329.1z M240.2,237.4c0,4.9,0,9.7,0,14.6
					c0,0.3,0,0.7,0,1c0.1,1.2,0.5,1.6,1.6,1.6c0.6,0,1.1-0.1,1.7-0.1c7.5-1,14.3-3.8,20.5-8.2c0.4-0.3,0.8-0.6,1.2-0.9
					c0.9-0.8,1-1.4,0.2-2.3c-0.6-0.8-1.3-1.6-2-2.3c-5.9-6.8-11.8-13.7-17.7-20.5c-0.3-0.4-0.7-0.8-1.1-1.1
					c-0.4-0.3-0.8-0.4-1.3-0.3c-1.9,0.4-3.2,2.1-3.2,4C240.2,227.5,240.2,232.4,240.2,237.4z M234.7,237.4c0-1.7,0-3.5,0-5.2
					c0-3.4,0-6.7,0-10.1c0-0.9-0.2-1.7-1-2.3c-1.9-1.5-2.7-1.5-4.3,0.3c-6.1,7.1-12.3,14.2-18.4,21.4c-0.5,0.6-1.1,1.2-1.5,1.8
					c-0.6,0.8-0.5,1.3,0.2,2c0.4,0.3,0.8,0.6,1.2,0.9c6.2,4.5,13,7.2,20.6,8.2c0.6,0.1,1.2,0.1,1.8,0.1c0.9,0,1.3-0.5,1.4-1.3
					c0-0.4,0-0.8,0-1.1C234.7,247.1,234.7,242.3,234.7,237.4z M220.1,212.5c-0.5,0.1-1,0.1-1.4,0.2c-8,1.5-15.9,3-23.9,4.6
					c-2.1,0.4-2.4,0.8-1.8,2.9c1.9,7,5.2,13.2,9.9,18.7c0.2,0.3,0.5,0.6,0.8,0.8c0.6,0.5,1.1,0.5,1.7,0c0.4-0.3,0.7-0.7,1-1.1
					c5.1-5.9,10.2-11.8,15.2-17.7c1.2-1.4,2.4-2.8,3.6-4.2c0.6-0.8,0.5-1.4-0.3-1.9c-1.2-0.7-2.4-1.3-3.6-1.9
					C220.9,212.6,220.5,212.5,220.1,212.5z M255,212.4c-0.2,0-0.3,0-0.5,0c-1.8,0.3-3.3,1.3-4.8,2.3c-0.5,0.3-0.5,0.9-0.1,1.4
					c0.3,0.5,0.7,0.9,1.1,1.3c6.1,7.1,12.2,14.1,18.3,21.2c0.2,0.3,0.5,0.5,0.7,0.7c0.6,0.5,1,0.5,1.6,0c0.4-0.4,0.8-0.8,1.2-1.2
					c4.5-5.4,7.6-11.5,9.4-18.3c0.1-0.3,0.2-0.7,0.2-1c0.1-0.8-0.2-1.2-1-1.5c-0.4-0.1-0.8-0.2-1.2-0.3c-7.9-1.5-15.8-3-23.7-4.5
					C255.8,212.5,255.4,212.5,255,212.4z M259.3,182.3c9.8,0,16.5-7.8,15-16.3c-0.8-4.8-3.5-8.3-7.9-10.4c-1.3-0.6-1.9-0.5-2.9,0.5
					c-0.8,0.8-1.5,1.7-2.3,2.5c-0.5,0.6-1,1.2-1.4,1.9c-0.5,0.8-0.3,1.3,0.6,1.6c0.3,0.1,0.6,0.1,0.9,0.2c2.6,0.7,4.5,2.9,4.8,5.5
					c0.3,2.7-1.2,5.2-3.6,6.4c-2.4,1.1-5.2,0.7-7.2-1.2c-0.3-0.3-0.5-0.5-0.8-0.8c-0.5-0.4-0.9-0.3-1.3,0.2
					c-0.2,0.2-0.3,0.5-0.4,0.7c-0.5,1.2-0.9,2.4-1.4,3.6c-0.6,1.6-0.3,2.3,1.2,3.2C255,181.5,257.6,182.3,259.3,182.3z M201,167.2
					c0,7.2,3.9,12.7,9.9,14.5c4.2,1.3,8.2,0.7,11.9-1.7c1.3-0.9,1.6-1.5,1.1-3c-0.5-1.4-1-2.8-1.6-4.3c-0.1-0.3-0.3-0.6-0.5-0.9
					c-0.4-0.5-0.7-0.5-1.2-0.1c-0.4,0.4-0.8,0.8-1.2,1.2c-2.6,2.6-6.8,2.4-9.2-0.4c-2.4-2.7-2-6.9,0.9-9.2c1.1-0.8,2.3-1.2,3.7-1.4
					c1-0.1,1.3-0.7,0.7-1.5c-1.2-1.6-2.6-3.2-3.9-4.7c-0.6-0.7-1.4-0.8-2.3-0.4c-0.3,0.1-0.6,0.2-0.8,0.4
					C203.6,158.6,201.2,162.7,201,167.2z M191.2,207.2c0.1,1.1,0.1,2.2,0.2,3.3c0.1,1.1,0.6,1.5,1.8,1.4c0.2,0,0.4-0.1,0.6-0.1
					c5.1-1,10.2-1.9,15.3-2.9c0.3-0.1,0.7-0.1,1-0.3c0.6-0.3,0.7-0.8,0.1-1.2c-0.3-0.2-0.7-0.4-1.1-0.5c-4-1.6-8-2.8-12.2-3.7
					c-1.1-0.3-2.3-0.5-3.5-0.7c-1.3-0.2-1.8,0.2-2,1.5C191.3,205.1,191.3,206.1,191.2,207.2z M283.4,207.5c0,0,0.1,0,0.1,0
					c0-0.9-0.1-1.7-0.1-2.6c0-0.2,0-0.3,0-0.5c-0.1-1.2-0.7-1.7-1.9-1.4c-1.2,0.2-2.3,0.5-3.4,0.8c-4.1,1-8.2,2-12.1,3.4
					c-0.5,0.2-1.2,0.3-1.1,1c0.1,0.7,0.7,0.7,1.2,0.8c1.9,0.4,3.7,0.7,5.6,1.1c3.2,0.6,6.5,1.2,9.7,1.8c1.4,0.3,2-0.2,2.1-1.6
					C283.5,209.3,283.4,208.4,283.4,207.5z"/>
			</g>
		</g>
	</g>
	<g id="PTtfJ8_1_">
		<g>
			<path fill-rule="evenodd" clip-rule="evenodd" fill="#D5C8A8" d="M139.1,56.3c-0.1-0.4-0.2-0.7-0.4-1.1c-2.2-5-4.4-10-6.6-15
				c-0.6-1.4-0.6-1.5,0.6-2.5c0.8-0.6,1.5-1.3,2.3-1.9c0.9-0.8,1.1-0.8,2.1-0.1c4.6,3,9.2,5.9,13.7,8.9c0.4,0.3,0.8,0.5,1.2,0.7
				c0.1-0.1,0.1-0.1,0.2-0.2c-0.1-0.4-0.2-0.8-0.4-1.2c-2.1-4.7-4.1-9.4-6.2-14.1c-1-2.2-1-2.2,0.9-3.7c0.4-0.3,0.8-0.7,1.2-1
				c0.8-0.6,1.2-0.6,1.6,0.4c1,2.3,2.1,4.7,3.1,7.1c2.6,6,5.2,11.9,7.9,17.9c0.5,1.1,0.4,1.3-0.4,2.1c-0.6,0.5-1.1,1-1.7,1.4
				c-0.9,0.7-1.1,0.7-2.1,0.1c-3.5-2.2-6.9-4.5-10.4-6.7c-1.8-1.2-3.6-2.3-5.4-3.5c-0.3-0.2-0.6-0.3-0.8-0.4c-0.1,0-0.1,0.1-0.2,0.1
				c0.1,0.4,0.2,0.8,0.4,1.2c2.2,5.1,4.5,10.2,6.7,15.4c0.3,0.6,0.5,1.2,0.8,1.9c0.2,0.6,0.2,1-0.3,1.4c-0.8,0.7-1.5,1.3-2.3,2
				c-0.6,0.5-1.1,0.3-1.7-0.1c-2.5-1.6-5-3.2-7.5-4.8c-5.1-3.3-10.3-6.6-15.4-10c-0.2-0.1-0.4-0.3-0.6-0.4c-0.4-0.3-0.4-0.7,0-1.1
				c0.9-0.8,1.8-1.6,2.8-2.3c0.5-0.4,1-0.2,1.5,0.1c2.4,1.6,4.9,3.1,7.3,4.7c2.3,1.5,4.6,3,7,4.5c0.3,0.2,0.6,0.3,0.8,0.4
				C139,56.4,139.1,56.3,139.1,56.3z"/>
			<path fill-rule="evenodd" clip-rule="evenodd" fill="#D5C8A8" d="M278.2,11.8c0,4.7-2.3,7.9-6.6,9.7c-1.5,0.6-1.5,0.7-0.6,2.1
				c1.7,2.5,3.3,5.1,5,7.6c0.2,0.3,0.4,0.5,0.5,0.8c0.1,0.2,0.2,0.6,0,0.8c-0.1,0.1-0.5,0.2-0.7,0.2c-1.6-0.3-3.2-0.5-4.8-0.9
				c-0.5-0.1-0.9-0.6-1.2-1c-1.5-2.1-2.9-4.3-4.3-6.5c-0.6-0.9-0.8-1-1.9-0.8c-1.5,0.4-3,0.8-4.5,1.1c-0.8,0.2-1.1,0.6-1.3,1.4
				c-0.1,0.7-0.2,1.5-0.4,2.2c-0.2,0.8-0.5,1-1.3,0.8c-0.8-0.1-1.7-0.3-2.5-0.5c-1.2-0.2-1.4-0.5-1.1-1.7c1.1-5.8,2.2-11.6,3.3-17.4
				c0.5-2.7,1-5.3,1.5-8c0.2-1.3,0.5-1.4,1.7-1.2c3.9,0.7,7.7,1.4,11.6,2.2c4.1,0.8,7,3.8,7.5,7.7C278.2,10.9,278.2,11.3,278.2,11.8
				z M273.1,12.2c0-2.6-1.2-4-3.5-4.5c-2.3-0.5-4.6-0.9-6.9-1.3c-0.8-0.1-1,0-1.2,0.8c-0.7,3.7-1.4,7.4-2.1,11.1
				c-0.2,0.9,0.1,1.2,1,1c2.1-0.5,4.2-0.9,6.2-1.5c1.2-0.3,2.4-0.7,3.5-1.2C272.1,15.6,273.1,14,273.1,12.2z"/>
			<path fill-rule="evenodd" clip-rule="evenodd" fill="#D5C8A8" d="M122.2,90.2c0,8.3-5.3,14.5-12.4,15.5c-2.2,0.3-4.3,0.1-6.4-0.7
				c-1.8-0.8-3.6-1.5-5.3-2.4c-6.2-3.3-8.8-11-5.9-17.7c2.5-5.7,7.8-9.2,13.9-8.8c1.5,0.1,2.9,0.6,4.3,1c1.4,0.5,2.7,1.2,4,1.9
				C119.6,81.4,121.9,85.6,122.2,90.2z M117.1,90.8c-0.1-3-1.5-5.7-4.7-7.3c-1.3-0.6-2.7-1.3-4-1.9c-0.9-0.4-2-0.6-3-0.6
				c-3.7-0.1-7.2,2.5-8.5,6.2c-1.6,4.4,0.1,9,4.1,10.9c1.3,0.6,2.5,1.2,3.8,1.8c1.2,0.6,2.5,0.9,3.8,0.8
				C113.3,100.3,117,96.2,117.1,90.8z"/>
			<path fill-rule="evenodd" clip-rule="evenodd" fill="#D5C8A8" d="M338.6,68.4c-4.7,0-7.7-1.4-10.3-3.6c-1.9-1.7-3.7-3.6-5.6-5.3
				c-0.7-0.7-1.4-1.3-2-2c-0.6-0.7-0.6-1,0-1.7c6.4-6.4,12.7-12.7,19.1-19.1c0.6-0.6,1-0.6,1.6,0c2.6,2.6,5.2,5.1,7.8,7.8
				c4.4,4.7,4.4,12.4,0.1,17.1c-1.3,1.5-2.7,2.9-4.2,4.1C342.8,67.5,340.2,68.4,338.6,68.4z M347.4,53.1c0-2.1-0.7-3.9-2.2-5.4
				c-1.2-1.3-2.5-2.5-3.7-3.7c-0.7-0.7-1-0.7-1.7,0c-3,3-6.1,6.1-9.1,9.1c-0.9,0.9-1.8,1.8-2.8,2.8c-0.6,0.6-0.6,0.9,0,1.5
				c0.9,1,1.9,1.9,2.9,2.8c0.9,0.8,1.9,1.5,2.9,2.1c3.1,1.8,6.3,1.3,8.9-1.2c0.9-0.9,1.8-1.8,2.7-2.7
				C346.7,56.9,347.3,55.1,347.4,53.1z"/>
			<path fill-rule="evenodd" clip-rule="evenodd" fill="#D5C8A8" d="M359.4,108.1c-0.3-0.3-0.6-0.5-0.8-0.9
				c-0.9-1.6-1.7-3.3-2.6-4.9c-1.8-3.4-3.6-6.9-5.4-10.3c-0.6-1.1-0.5-1.4,0.6-1.9c7.8-4.1,15.7-8.2,23.5-12.3
				c1-0.5,1.3-0.4,1.9,0.6c2.6,5,5.3,10.1,7.9,15.1c0.6,1.1,0.5,1.4-0.6,2c-0.7,0.4-1.4,0.8-2.2,1.1c-0.8,0.4-1.2,0.3-1.6-0.5
				c-1.8-3.5-3.7-7-5.5-10.5c-0.1-0.2-0.2-0.4-0.3-0.6c-0.4-0.8-0.7-0.8-1.4-0.5c-1.1,0.6-2.3,1.2-3.4,1.8c-1,0.5-1.1,0.8-0.5,1.7
				c1.4,2.6,2.7,5.2,4.1,7.8c0.6,1.1,0.5,1.4-0.6,2c-0.7,0.4-1.4,0.7-2,1.1c-0.9,0.5-1.3,0.4-1.8-0.6c-1.2-2.3-2.5-4.7-3.7-7
				c-0.2-0.4-0.5-0.9-0.7-1.3c-0.3-0.5-0.6-0.6-1.1-0.3c-1.8,0.9-3.6,1.9-5.4,2.8c-0.7,0.3-0.5,0.8-0.2,1.4c1.2,2.2,2.4,4.5,3.5,6.7
				c0.7,1.4,1.5,2.8,2.2,4.3c0.5,1,0.4,1.3-0.6,1.8c-0.8,0.4-1.6,0.8-2.3,1.2C360,107.9,359.8,107.9,359.4,108.1z"/>
			<path fill-rule="evenodd" clip-rule="evenodd" fill="#D5C8A8" d="M187.5,37.1c-0.7,0-0.9-0.5-1-0.9c-0.6-1.8-1.1-3.6-1.7-5.4
				c-2.1-6.5-4.1-13-6.2-19.5c-0.4-1.3-0.3-1.5,1-2c0.7-0.2,1.4-0.5,2.1-0.7c1-0.3,1.3-0.1,1.6,0.9c0.9,2.8,1.7,5.5,2.6,8.3
				c1.3,4,2.5,8,3.8,11.9c0.3,1,0.5,1.1,1.6,0.8c2.3-0.7,4.6-1.4,6.8-2.1c1.2-0.4,1.4-0.2,1.8,0.9c0.3,0.8,0.5,1.5,0.7,2.3
				c0.3,0.9,0.1,1.3-0.8,1.6c-2.9,0.9-5.8,1.8-8.8,2.8c-1,0.3-2.1,0.7-3.1,1C187.9,37,187.7,37.1,187.5,37.1z"/>
			<path fill-rule="evenodd" clip-rule="evenodd" fill="#D5C8A8" d="M300.9,44c-0.4-0.1-0.6-0.2-0.8-0.3c-0.8-0.4-1.6-0.8-2.4-1.2
				c-0.9-0.4-1-0.8-0.5-1.7c2.4-4.8,4.9-9.6,7.4-14.4c1.5-2.9,2.9-5.7,4.4-8.6c0.6-1.1,0.9-1.2,2-0.6c0.7,0.4,1.4,0.7,2.1,1.1
				c0.9,0.5,1,0.8,0.5,1.7c-2.1,4.2-4.2,8.3-6.4,12.4c-1.8,3.5-3.6,7.1-5.4,10.6C301.5,43.3,301.1,43.7,300.9,44z"/>
		</g>
	</g>
</g>
</svg>
