<svg xmlns="http://www.w3.org/2000/svg" width="34" height="34" viewBox="-169.5 103.5 34 34"><g fill="#D4C7A6"><path d="M-147.8 112.4h3v2.1h-3z"/><path d="M-152.5 103.5c-9.4 0-17 7.6-17 17s7.6 17 17 17 17-7.6 17-17-7.6-17-17-17zm9.7 23.8c0 1.6-1.3 2.9-2.9 2.9h-13.6c-1.6 0-2.9-1.3-2.9-2.9v-8.6h5c-.3.5-.4 1.1-.4 1.8 0 2.8 2.3 5 5 5s5-2.3 5-5c0-.6-.1-1.3-.4-1.8h4.9v8.6h.3zm-12.1-6.8c0-1.4 1.1-2.5 2.5-2.5s2.5 1.1 2.5 2.5-1.1 2.5-2.5 2.5-2.5-1.1-2.5-2.5zm12.1-5h-19.4v-1.8c0-1.6 1.3-2.9 2.9-2.9h13.6c1.6 0 2.9 1.3 2.9 2.9v1.8z"/></g></svg>