<svg xmlns="http://www.w3.org/2000/svg" width="34" height="34" viewBox="-169.5 103.5 34 34"><path fill="#D4C7A6" d="M-152.5 103.5c-9.4 0-17 7.6-17 17s7.6 17 17 17 17-7.6 17-17-7.6-17-17-17zm11.8 11.6c-.5.5-.9 1-1.4 1.4-.8.5-1 1.1-1 2 0 .5-.1 1.1-.3 1.6-2 10.1-12.3 13.1-19.4 9.1-.1-.1-.3-.1-.4-.4 2.5.1 4.7-.4 6.5-1.9-2.5-.6-3.8-1.6-4-3.3h1.6c-2.3-1.1-3.5-2.8-3.3-4.5.6.1 1.1.4 1.9.5-2-2.1-2.5-4.5-1.3-6.2 2.5 2.9 5.5 4.5 9.3 4.8v-.5c-.1-2 .6-3.7 2.5-4.5 1.9-.9 3.7-.6 5.3.6.1.1.5.3.6.1.8-.3 1.6-.5 2.4-.9-.3 1-.9 1.6-1.5 2.4.8-.3 1.5-.5 2.3-.8.2.4.2.5.2.5z"/></svg>