<?xml version="1.0" encoding="utf-8"?>
<!-- Generator: Adobe Illustrator 18.1.1, SVG Export Plug-In . SVG Version: 6.00 Build 0)  -->
<!DOCTYPE svg PUBLIC "-//W3C//DTD SVG 1.1//EN" "http://www.w3.org/Graphics/SVG/1.1/DTD/svg11.dtd">
<svg version="1.1" id="Layer_1" xmlns="http://www.w3.org/2000/svg" xmlns:xlink="http://www.w3.org/1999/xlink" x="0px" y="0px"
	 width="34px" height="34px" viewBox="-169.5 103.5 34 34" enable-background="new -169.5 103.5 34 34" xml:space="preserve">
<g>
	<rect x="-147.8" y="112.4" fill="#D4C7A6" width="3" height="2.1"/>
	<path fill="#D4C7A6" d="M-152.5,103.5c-9.4,0-17,7.6-17,17s7.6,17,17,17s17-7.6,17-17S-143.1,103.5-152.5,103.5z M-142.8,127.3
		c0,1.6-1.3,2.9-2.9,2.9h-13.6c-1.6,0-2.9-1.3-2.9-2.9v-8.6h5c-0.3,0.5-0.4,1.1-0.4,1.8c0,2.8,2.3,5,5,5s5-2.3,5-5
		c0-0.6-0.1-1.3-0.4-1.8h4.9v8.6H-142.8z M-154.9,120.5c0-1.4,1.1-2.5,2.5-2.5c1.4,0,2.5,1.1,2.5,2.5s-1.1,2.5-2.5,2.5
		C-153.8,123-154.9,121.9-154.9,120.5z M-142.8,115.5h-19.4v-1.8c0-1.6,1.3-2.9,2.9-2.9h13.6c1.6,0,2.9,1.3,2.9,2.9V115.5z"/>
</g>
</svg>
